<svg xmlns="http://www.w3.org/2000/svg" xmlns:xlink="http://www.w3.org/1999/xlink" xmlns:fi="http://pattern.flaticon.com/" x="0" y="0" width="700" height="350" viewBox="0 0 700 350"><rect x="0px" y="0px" width="100%" height="100%" opacity="1" fill="#ececec"/><defs><g transform="matrix(0.039107795804739 0 0 0.039107795804739 77.5 340)" id="L1_846"><path d="M438.919,120.671c-4.78-8.412-19.849-17.029-44.79-25.612c-19.565-6.733-39.783-11.436-49.166-11.436   c-15.717,0-30.27,10.995-36.081,16h-52.919c-0.087,0-0.173,0.001-0.259,0.004c-0.086-0.002-0.173-0.004-0.26-0.004h-52.919   c-5.811-5.005-20.364-16-36.081-16c-9.383,0-29.601,4.702-49.166,11.436c-24.941,8.583-40.01,17.2-44.79,25.612   C71.47,122.464-27.814,303.793,7.65,388.162c8.506,20.236,23.899,33.423,45.75,39.195c1.08,0.285,2.195,0.427,3.354,0.427   c12.034,0,28.7-15.223,57.415-42.445c12.125-11.495,24.662-23.381,35.641-32.254c15.033-12.15,20.836-13.462,22.634-13.462h166.519   c1.797,0,7.601,1.312,22.633,13.461c10.979,8.874,23.517,20.759,35.641,32.254c28.716,27.224,45.38,42.448,57.415,42.446   c1.158,0,2.275-0.142,3.354-0.427c21.852-5.771,37.244-18.959,45.75-39.194C539.22,303.8,439.938,122.465,438.919,120.671z    M489.007,381.963c-6.512,15.49-17.836,25.242-34.611,29.798c-1.018-0.208-5.267-1.602-16.52-10.96   c-8.731-7.26-18.882-16.884-29.63-27.074c-32.884-31.175-53.956-50.104-69.282-50.104H172.444   c-15.326,0-36.399,18.929-69.283,50.104c-10.748,10.189-20.899,19.813-29.63,27.073c-11.253,9.357-15.502,10.752-16.52,10.96   c-16.775-4.556-28.1-14.308-34.611-29.799c-12.63-30.047-6.547-81.548,17.592-148.935c18.149-50.664,41.581-95.956,46.408-104.452   c1.458-2.566,10.877-9.713,36.085-18.388c19.216-6.613,37.441-10.564,43.959-10.564c10.788,0,23.467,9.928,27.431,13.743   c1.493,1.447,3.49,2.257,5.569,2.257h56c0.087,0,0.173-0.001,0.26-0.004c0.086,0.002,0.172,0.004,0.259,0.004h56   c2.079,0,4.077-0.81,5.569-2.257c3.942-3.822,16.554-13.743,27.431-13.743c6.518,0,24.743,3.952,43.959,10.564   c25.208,8.675,34.626,15.821,36.085,18.388c4.828,8.497,28.261,53.793,46.408,104.453   C495.554,300.415,501.637,351.915,489.007,381.963z"/><path d="M191.444,291.623c4.418,0,8-3.582,8-8v-8h8c4.418,0,8-3.582,8-8s-3.582-8-8-8h-8v-8c0-4.418-3.582-8-8-8s-8,3.582-8,8v8h-8   c-4.418,0-8,3.582-8,8s3.582,8,8,8h8v8C183.444,288.041,187.026,291.623,191.444,291.623z"/><path d="M352.895,244.271c-4.047,1.772-5.892,6.49-4.12,10.537c1.771,4.046,2.669,8.358,2.669,12.819   c0,17.643-14.354,31.996-31.996,31.996s-31.996-14.354-31.996-31.996s14.354-31.996,31.996-31.996   c4.458,0,8.767,0.896,12.809,2.665c4.049,1.771,8.765-0.074,10.536-4.123c1.771-4.048-0.075-8.765-4.123-10.536   c-6.077-2.658-12.544-4.006-19.222-4.006c-26.465,0-47.996,21.531-47.996,47.996s21.531,47.996,47.996,47.996   s47.996-21.531,47.996-47.996c0-6.683-1.35-13.155-4.012-19.236C361.66,244.343,356.942,242.498,352.895,244.271z"/><path d="M224.895,244.271c-4.047,1.772-5.892,6.49-4.12,10.537c1.771,4.046,2.669,8.358,2.669,12.819   c0,17.643-14.354,31.996-31.996,31.996s-31.996-14.354-31.996-31.996s14.354-31.996,31.996-31.996   c4.458,0,8.767,0.896,12.809,2.665c4.049,1.771,8.766-0.074,10.536-4.123c1.771-4.048-0.075-8.765-4.123-10.536   c-6.077-2.658-12.544-4.006-19.222-4.006c-26.465,0-47.996,21.531-47.996,47.996s21.531,47.996,47.996,47.996   s47.996-21.531,47.996-47.996c0-6.683-1.35-13.155-4.012-19.236C233.66,244.343,228.942,242.498,224.895,244.271z"/><path d="M319.448,251.628c-0.001,0-0.003,0-0.004,0s-0.003,0-0.004,0c-8.822,0-16,7.177-16,15.999c0,8.822,7.177,15.999,16,15.999   c0.001,0,0.003,0,0.004,0s0.003,0,0.004,0c8.822,0,16-7.177,16-15.999C335.448,258.805,328.271,251.628,319.448,251.628z"/><path d="M175.444,187.619c0-6.684-1.35-13.155-4.012-19.236c-1.772-4.047-6.491-5.893-10.537-4.12   c-4.047,1.772-5.892,6.49-4.12,10.537c1.771,4.045,2.669,8.358,2.669,12.819c0,17.643-14.354,31.996-31.996,31.996   s-31.996-14.354-31.996-31.996s14.354-31.996,31.996-31.996c4.458,0,8.767,0.896,12.809,2.665c4.05,1.771,8.765-0.076,10.536-4.123   c1.771-4.048-0.075-8.765-4.123-10.536c-6.077-2.658-12.544-4.006-19.222-4.006c-26.465,0-47.996,21.531-47.996,47.996   s21.531,47.996,47.996,47.996S175.444,214.084,175.444,187.619z"/><path d="M127.448,171.62c-0.001,0-0.002,0-0.004,0s-0.002,0-0.004,0c-8.822,0-16,7.177-16,15.999c0,8.822,7.177,15.999,16,15.999   c0.001,0,0.002,0,0.004,0s0.002,0,0.004,0c8.822,0,16-7.177,16-15.999C143.448,178.797,136.271,171.62,127.448,171.62z"/><path d="M351.444,203.623c8.822,0,16-7.178,16-16s-7.178-16-16-16s-16,7.178-16,16S342.622,203.623,351.444,203.623z"/><path d="M415.444,171.623c-8.822,0-16,7.178-16,16s7.178,16,16,16s16-7.178,16-16S424.267,171.623,415.444,171.623z"/><path d="M383.444,203.623c-8.822,0-16,7.178-16,16s7.178,16,16,16s16-7.178,16-16S392.267,203.623,383.444,203.623z"/><path d="M383.444,171.623c8.822,0,16-7.178,16-16s-7.178-16-16-16s-16,7.178-16,16S374.622,171.623,383.444,171.623z"/><path d="M279.444,147.623c0-13.233-10.766-24-24-24s-24,10.767-24,24s10.766,24,24,24S279.444,160.856,279.444,147.623z    M255.444,155.623c-4.411,0-8-3.589-8-8s3.589-8,8-8s8,3.589,8,8S259.856,155.623,255.444,155.623z"/></g><g transform="matrix(0.03903261572122574 0 0 0.03903261572122574 252.5 340)" id="L1_847"><path d="M413.911,212.027c-2.347-4.497-8.637-12.041-24.388-12.041H256.381l27.812-175.913c1.502-9.914,0.616-16.375-2.79-20.335   C279.331,1.327,276.458,0,273.314,0c-5.574,0-11.024,4.096-17.154,12.891c-0.026,0.038-0.052,0.075-0.077,0.113L102.509,241.604   c-8.962,12.895-6.372,22.348-4.028,26.839c2.348,4.498,8.637,12.042,24.389,12.042h109.922l-32.688,207.835   c-1.502,9.911-0.616,16.372,2.789,20.332c2.072,2.41,4.944,3.738,8.087,3.739c0.001,0,0.002,0,0.004,0   c5.573,0,11.023-4.097,17.152-12.89l181.71-260.582C418.852,225.998,416.259,216.524,413.911,212.027z M396.72,229.771   L216.264,488.555l33.787-214.826c0.363-2.31-0.302-4.664-1.822-6.441c-1.52-1.778-3.742-2.801-6.081-2.801H122.869   c-5.185,0-9.095-1.32-10.204-3.446c-1.11-2.125,0.043-6.088,3.008-10.342c0.026-0.038,0.052-0.075,0.078-0.113L268.017,23.932   l-28.902,182.804c-0.365,2.312,0.299,4.667,1.819,6.446c1.52,1.779,3.743,2.804,6.083,2.804h142.506   c6.198,0,9.335,1.779,10.204,3.445C400.597,221.096,400.263,224.688,396.72,229.771z"/><path d="M230.954,114.604c-4.356-0.743-8.486,2.193-9.225,6.549l-8.667,51.096c-0.739,4.356,2.193,8.486,6.549,9.225   c0.453,0.077,0.903,0.114,1.348,0.114c3.831,0,7.215-2.76,7.877-6.664l8.667-51.096   C238.242,119.473,235.31,115.343,230.954,114.604z"/><path d="M358.962,241.608c-3.624-2.528-8.611-1.636-11.137,1.989l-10.672,15.312c-2.526,3.625-1.636,8.611,1.988,11.137   c1.394,0.972,2.988,1.438,4.568,1.438c2.527,0,5.015-1.195,6.57-3.426l10.672-15.312   C363.477,249.121,362.587,244.135,358.962,241.608z"/><path d="M331.826,280.542c-3.625-2.527-8.611-1.636-11.137,1.989l-52.352,75.113c-2.526,3.625-1.636,8.611,1.989,11.137   c1.394,0.972,2.988,1.438,4.567,1.438c2.528,0,5.015-1.195,6.57-3.426l52.352-75.113   C336.342,288.055,335.451,283.068,331.826,280.542z"/></g><g transform="matrix(0.07812149077653885 0 0 0.07812149077653885 67.5 67.5)" id="L1_848"><path d="M496.594,80.432c-79.711-5.587-160.654-8.42-240.582-8.42s-160.871,2.833-240.589,8.42C6.774,81.046,0,88.297,0,96.939   v318.145c0,8.645,6.776,15.896,15.43,16.507c79.711,5.587,160.654,8.42,240.582,8.42s160.871-2.833,240.586-8.42   c8.649-0.611,15.425-7.862,15.425-16.507V96.939C512.023,88.292,505.247,81.042,496.594,80.432z M496.023,184.012h-24.012   c-4.418,0-8,3.582-8,8s3.582,8,8,8h24.012v16h-56.012c-4.418,0-8,3.582-8,8s3.582,8,8,8h56.012v16h-80.012c-4.418,0-8,3.582-8,8   s3.582,8,8,8h80.012v16h-56.012c-4.418,0-8,3.582-8,8s3.582,8,8,8h56.012v16h-24.012c-4.418,0-8,3.582-8,8s3.582,8,8,8h24.012   v37.698L386.325,256.012l109.698-109.698V184.012z M292.493,88.217l-36.982,36.981l-36.971-36.97   c12.509-0.138,25.003-0.216,37.471-0.216C268.151,88.012,280.315,88.085,292.493,88.217z M16,328.012h24.012c4.418,0,8-3.582,8-8   s-3.582-8-8-8H16v-16h56.012c4.418,0,8-3.582,8-8s-3.582-8-8-8H16v-16h80.012c4.418,0,8-3.582,8-8s-3.582-8-8-8H16v-16h56.012   c4.418,0,8-3.582,8-8s-3.582-8-8-8H16v-16h24.012c4.418,0,8-3.582,8-8s-3.582-8-8-8H16v-36.698l108.698,108.698L16,364.71V328.012z    M218.541,423.796l36.971-36.97l36.982,36.981c-12.178,0.131-24.343,0.205-36.482,0.205   C243.544,424.012,231.05,423.934,218.541,423.796z M495.475,415.631c-59.843,4.194-120.383,6.827-180.662,7.869l-53.645-53.645   c-3.124-3.124-8.189-3.124-11.313,0l-53.63,53.63c-59.952-1.053-120.159-3.682-179.672-7.854c-0.229-0.016-0.547-0.387-0.553-0.547   v-27.748l125.668-125.668c3.125-3.124,3.125-8.189,0-11.313L16,124.687V96.94c0.007-0.16,0.327-0.532,0.548-0.547   c59.517-4.172,119.724-6.801,179.677-7.854l53.63,53.63c1.562,1.562,3.609,2.343,5.657,2.343s4.095-0.781,5.657-2.343   l53.645-53.645c60.278,1.042,120.818,3.675,180.659,7.869c0.224,0.016,0.546,0.391,0.551,0.547v26.747L369.355,250.355   c-3.125,3.124-3.125,8.189,0,11.313l126.668,126.668v26.748C496.019,415.244,495.702,415.615,495.475,415.631z"/><path d="M256.012,192.012c-35.29,0-64,28.71-64,64s28.71,64,64,64s64-28.71,64-64S291.301,192.012,256.012,192.012z    M256.012,304.012c-26.467,0-48-21.533-48-48s21.533-48,48-48s48,21.533,48,48S282.479,304.012,256.012,304.012z"/><path d="M280.012,248.012h-48c-4.418,0-8,3.582-8,8s3.582,8,8,8h48c4.418,0,8-3.582,8-8S284.43,248.012,280.012,248.012z"/></g><g transform="matrix(0.07812575995922089 0 0 0.07812575995922089 242.5 67.5)" id="L1_849"><path d="M391.996,0H119.999c-13.234,0-24,10.766-24,24v463.995c0,13.234,10.766,24,24,24h215.996   c11.011,0,25.185-5.871,32.97-13.657l33.374-33.373c7.786-7.785,13.657-21.959,13.657-32.97V24C415.996,10.766,405.229,0,391.996,0   z M399.996,431.995c0,6.64-4.275,16.962-8.97,21.656l-33.374,33.374c-4.695,4.695-15.017,8.97-21.657,8.97H119.999   c-4.411,0-8-3.589-8-8V24c0-4.411,3.589-8,8-8h271.997c4.411,0,8,3.589,8,8V431.995z"/><path d="M375.996,56H135.999c-4.418,0-8,3.582-8,8v191.998c0,4.418,3.582,8,8,8h239.998c4.418,0,8-3.582,8-8V64   C383.996,59.581,380.415,56,375.996,56z M367.996,247.997H143.999V72h223.998V247.997z"/><path d="M207.998,359.996h8c8.822,0,16-7.177,16-16v-16c0-8.823-7.177-16-16-16h-8v-8c0-8.823-7.178-16-16-16h-16   c-8.822,0-16,7.177-16,16v8h-8c-8.822,0-16,7.177-16,16v16c0,8.823,7.178,16,16,16h8v8c0,8.823,7.177,16,16,16h16   c8.822,0,16-7.177,16-16V359.996z M199.998,343.996c-4.418,0-8,3.582-8,8l0.001,16h-16.001v-16c0-4.418-3.582-8-8-8h-16v-16h16   c4.418,0,8-3.582,8-8l0-16h16v16c0,4.418,3.582,8,8,8h16l0,16H199.998z"/><path d="M375.996,311.997c-4.418,0-8,3.582-8,8c0,4.411-3.589,8-8,8s-8-3.589-8-8s3.588-8,8-8c4.418,0,8-3.582,8-8s-3.582-8-8-8   c-13.233,0-24,10.766-24,24s10.766,24,24,24c13.234,0,24-10.766,24-24C383.996,315.578,380.415,311.997,375.996,311.997z"/><path d="M335.997,351.996c-4.418,0-8,3.582-8,8c0,4.411-3.589,8-8,8s-8-3.589-8-8s3.588-8,8-8c4.418,0,8-3.582,8-8s-3.582-8-8-8   c-13.233,0-24,10.766-24,24c0,13.234,10.766,24,24,24c13.234,0,24-10.766,24-24C343.997,355.578,340.415,351.996,335.997,351.996z"/><path d="M235.56,409.339l-24,16c-3.676,2.451-4.67,7.417-2.219,11.094c1.542,2.313,4.078,3.563,6.664,3.563   c1.525,0,3.066-0.436,4.43-1.345l24-16c3.676-2.451,4.67-7.417,2.219-11.094C244.203,407.882,239.236,406.888,235.56,409.339z"/><path d="M291.56,409.339l-24,16c-3.676,2.451-4.67,7.417-2.219,11.094c1.542,2.313,4.078,3.563,6.664,3.563   c1.525,0,3.066-0.436,4.43-1.345l24-16c3.676-2.451,4.67-7.417,2.219-11.094C300.203,407.882,295.236,406.888,291.56,409.339z"/></g><g transform="matrix(0.13206017156295854 -0.03538541632261026 0.03538541632261026 0.13206017156295854 132.1339295012944 150.25126265847084)" id="L1_850"><path d="M328,256c0-39.701-32.299-72-72-72s-72,32.299-72,72s32.299,72,72,72S328,295.701,328,256z M256,312   c-30.878,0-56-25.122-56-56s25.122-56,56-56s56,25.122,56,56S286.878,312,256,312z"/><path d="M437.019,74.98C388.667,26.628,324.38,0,256,0C187.62,0,123.333,26.628,74.98,74.98S0,187.62,0,256   c0,68.38,26.628,132.667,74.98,181.019S187.62,512,256,512c68.38,0,132.667-26.629,181.019-74.981S512,324.38,512,256   C512,187.62,485.371,123.333,437.019,74.98z M425.706,425.706C380.375,471.036,320.106,496,256,496   c-64.106,0-124.375-24.964-169.706-70.294S16,320.106,16,256S40.964,131.624,86.294,86.294C131.624,40.964,191.894,16,256,16   s124.375,24.964,169.706,70.294S496,191.894,496,256C496,320.106,471.036,380.375,425.706,425.706z"/><path d="M460.42,315.292c-1.505-2.069-3.91-3.292-6.468-3.292H448c-4.411,0-8-3.589-8-8v-96c0-4.411,3.589-8,8-8h5.952   c2.559,0,4.963-1.224,6.468-3.292c1.505-2.068,1.931-4.732,1.145-7.167c-13.932-43.12-40.644-80.226-77.25-107.306   C346.964,54.604,302.593,40,256,40s-90.964,14.604-128.314,42.234c-36.606,27.08-63.319,64.186-77.25,107.306   c-0.786,2.435-0.361,5.099,1.145,7.167c1.505,2.069,3.91,3.292,6.468,3.292H64c4.411,0,8,3.589,8,8v96c0,4.411-3.589,8-8,8h-5.952   c-2.559,0-4.963,1.224-6.468,3.292c-1.505,2.068-1.931,4.732-1.145,7.167c21.27,65.833,73.271,117.835,139.105,139.105   c2.434,0.786,5.098,0.36,7.167-1.145c2.069-1.505,3.292-3.91,3.292-6.468V448c0-4.411,3.589-8,8-8h96c4.411,0,8,3.589,8,8v5.952   c0,2.559,1.224,4.963,3.292,6.468c1.385,1.008,3.037,1.532,4.708,1.532c0.825,0,1.654-0.127,2.459-0.387   c65.833-21.27,117.835-73.272,139.105-139.105C462.351,320.025,461.925,317.361,460.42,315.292z M69.146,184.556   c13.617-35.705,36.988-66.476,68.055-89.458C171.777,69.52,212.857,56,256,56s84.223,13.52,118.798,39.098   c31.067,22.982,54.438,53.753,68.055,89.458c-4.996,1.095-9.4,3.766-12.701,7.444h-92.178c-19.651-25.123-49.986-40-81.974-40   s-62.323,14.877-81.974,40H81.847C78.546,188.321,74.143,185.651,69.146,184.556z M184.557,442.848   c-52.982-20.271-95.134-62.422-115.404-115.404c4.993-1.097,9.395-3.766,12.694-7.443h86.202C181.255,320,192,330.742,192,343.946   v86.207C188.323,433.453,185.653,437.854,184.557,442.848z M208,424v-80.054C208,321.919,190.078,304,168.048,304H88v-96h90.022   c2.574,0,4.991-1.238,6.494-3.328C201.037,181.709,227.759,168,256,168s54.963,13.709,71.483,36.672   c1.503,2.089,3.92,3.328,6.494,3.328H424v96h-80.048C321.923,304,304,321.919,304,343.946V424h0H208z M327.443,442.848   c-1.097-4.993-3.766-9.394-7.443-12.694v-86.208C320,330.742,330.745,320,343.952,320h86.201c3.3,3.677,7.701,6.347,12.695,7.443   C422.577,380.425,380.425,422.577,327.443,442.848z"/><path d="M120,248h-16c-4.418,0-8,3.582-8,8s3.582,8,8,8h16c4.418,0,8-3.582,8-8S124.418,248,120,248z"/><path d="M168,248h-16c-4.418,0-8,3.582-8,8s3.582,8,8,8h16c4.418,0,8-3.582,8-8S172.418,248,168,248z"/><path d="M136,264c-4.418,0-8,3.582-8,8v16c0,4.418,3.582,8,8,8s8-3.582,8-8v-16C144,267.582,140.418,264,136,264z"/><path d="M136,248c4.418,0,8-3.582,8-8v-16c0-4.418-3.582-8-8-8s-8,3.582-8,8v16C128,244.418,131.582,248,136,248z"/><path d="M376,296c6.617,0,12-5.383,12-12s-5.383-12-12-12s-12,5.383-12,12S369.383,296,376,296z"/><path d="M376,240c6.617,0,12-5.383,12-12s-5.383-12-12-12s-12,5.383-12,12S369.383,240,376,240z"/><path d="M404,268c6.617,0,12-5.383,12-12s-5.383-12-12-12s-12,5.383-12,12S397.383,268,404,268z"/><path d="M348,268c6.617,0,12-5.383,12-12s-5.383-12-12-12s-12,5.383-12,12S341.383,268,348,268z"/><path d="M240,344h-16c-4.418,0-8,3.582-8,8s3.582,8,8,8h16c4.418,0,8-3.582,8-8S244.418,344,240,344z"/><path d="M288,344h-16c-4.418,0-8,3.582-8,8s3.582,8,8,8h16c4.418,0,8-3.582,8-8S292.418,344,288,344z"/><path d="M256,216c-4.418,0-8,3.582-8,8s3.582,8,8,8c13.234,0,24,10.766,24,24c0,4.418,3.582,8,8,8s8-3.582,8-8   C296,233.944,278.056,216,256,216z"/></g><g transform="matrix(0.09765625 0 0 0.09765625 62.5 237.5)" id="L1_851"><path d="M287.965,0h-63.93C153.437,0,96,57.437,96,128.035V352c0,88.224,71.776,160,160,160s160-71.776,160-160V128.035   C416,57.437,358.563,0,287.965,0z M232,16h48v328c0,13.234-10.766,24-24,24s-24-10.766-24-24V16z M400,352   c0,79.402-64.598,144-144,144s-144-64.598-144-144V128.035c0-21.065,5.848-40.789,16-57.64V88c0,4.418,3.582,8,8,8s8-3.582,8-8   V49.723c18.596-19.001,43.878-31.43,72-33.432v284.652c-42.873-16.395-72-57.992-72-104.629V120c0-4.418-3.582-8-8-8s-8,3.582-8,8   v76.314c0,55.343,35.89,104.484,88,121.609V344c0,22.056,17.944,40,40,40s40-17.944,40-40v-26.067   c24.288-8.007,46.05-23.446,61.688-43.868C374.901,251.584,384,224.698,384,196.314V120c0-4.418-3.582-8-8-8s-8,3.582-8,8v76.314   c0,46.516-29.164,88.237-72,104.638V16.291c28.122,2.003,53.404,14.431,72,33.432V88c0,4.418,3.582,8,8,8s8-3.582,8-8V70.395   c10.152,16.851,16,36.575,16,57.64V352z"/><path d="M256,200c8.822,0,16-7.178,16-16s-7.178-16-16-16s-16,7.178-16,16S247.178,200,256,200z"/><path d="M256,248c8.822,0,16-7.178,16-16s-7.178-16-16-16s-16,7.178-16,16S247.178,248,256,248z"/><path d="M256,144c8.822,0,16-7.178,16-16V88c0-8.822-7.178-16-16-16s-16,7.178-16,16v40C240,136.822,247.178,144,256,144z M256,88   l0.01,40c0,0-0.003,0-0.01,0V88z"/></g><g transform="matrix(0.16990780402303668 0.045526658875718135 -0.045526658875718135 0.16990780402303668 318.17824729580656 -55.09872294440318)" id="L1_853"><path d="M510.876,366.531c-0.013-0.075-0.026-0.15-0.041-0.226l-31.318-158.657c-0.024-0.123-0.061-0.24-0.09-0.36   c0.201-2.419,0.308-4.865,0.308-7.335c0-48.498-39.456-87.954-87.955-87.954c-30.81,0-57.966,15.927-73.68,39.977h-38.252v-16.178   c0-10.424-6.685-19.313-15.991-22.614V87.825c0-4.418-3.582-8-8-8s-8,3.582-8,8v25.358c-9.306,3.302-15.991,12.19-15.991,22.614   v16.178h-38.205c-6.171-9.48-14.135-17.724-23.581-24.291c-14.764-10.262-32.104-15.686-50.146-15.686   c-48.498,0-87.954,39.456-87.954,87.954c0,2.403,0.101,4.783,0.291,7.138c-0.05,0.184-0.102,0.367-0.14,0.557L0.815,366.305   c-0.015,0.075-0.028,0.15-0.041,0.226C0.26,369.591,0,372.727,0,375.852c0,30.863,25.109,55.973,55.973,55.973   c19.92,0,38.497-10.722,48.455-27.939l68.062-115.979h166.67l68.037,115.936c9.983,17.26,28.56,27.982,48.48,27.982   c30.863,0,55.973-25.109,55.973-55.973C511.65,372.727,511.39,369.591,510.876,366.531z M247.868,135.798   c0-4.406,3.584-7.991,7.991-7.991s7.991,3.585,7.991,7.991v16.178h-15.981V135.798z M119.936,127.999   c29.846,0,56.158,17.954,67.033,45.741c1.61,4.114,6.25,6.144,10.365,4.534c4.093-1.602,6.119-6.201,4.557-10.299h107.954   c-3.883,9.916-6.019,20.702-6.019,31.978c0,16.771,4.739,33.081,13.705,47.167c2.372,3.728,7.318,4.826,11.044,2.454   c3.728-2.372,4.826-7.317,2.454-11.044c-7.329-11.515-11.203-24.854-11.203-38.577c0-39.676,32.278-71.954,71.954-71.954   s71.955,32.278,71.955,71.954s-32.279,71.954-71.955,71.954c-14.663,0-28.767-4.38-40.788-12.668   c-3.639-2.509-8.62-1.592-11.127,2.045c-2.349,3.408-1.694,7.995,1.389,10.623H170.46c22.622-15.931,37.431-42.244,37.431-71.954   c0-4.418-3.582-8-8-8s-8,3.582-8,8c0,39.676-32.279,71.954-71.955,71.954s-71.954-32.278-71.954-71.954   S80.26,127.999,119.936,127.999z M90.604,395.831c-7.133,12.333-20.403,19.994-34.631,19.994C33.932,415.825,16,397.893,16,375.852   c0-2.204,0.18-4.412,0.535-6.565l25.408-128.713c14.698,28.105,44.14,47.333,77.993,47.333c2.072,0,4.126-0.077,6.163-0.219   c0.589,0.138,1.201,0.219,1.833,0.219h26.007L90.604,395.831z M455.677,415.825c-14.228,0-27.498-7.661-34.656-20.037   l-63.309-107.881h26.073c0.633,0,1.247-0.081,1.837-0.22c2.042,0.141,4.095,0.22,6.158,0.22c33.816,0,63.231-19.186,77.945-47.241   l25.389,128.621c0.355,2.153,0.535,4.361,0.535,6.565C495.65,397.893,477.718,415.825,455.677,415.825z"/><path d="M239.868,247.93h31.981c4.418,0,8-3.582,8-8s-3.582-8-8-8h-31.981c-4.418,0-8,3.582-8,8S235.449,247.93,239.868,247.93z"/><path d="M95.95,207.953c4.418,0,8-3.582,8-8s-3.582-8-8-8H71.963c-4.418,0-8,3.582-8,8s3.582,8,8,8H95.95z"/><path d="M143.922,207.953h23.986c4.418,0,8-3.582,8-8s-3.582-8-8-8h-23.986c-4.418,0-8,3.582-8,8S139.504,207.953,143.922,207.953z   "/><path d="M119.936,255.926c4.418,0,8-3.582,8-8v-23.986c0-4.418-3.582-8-8-8s-8,3.582-8,8v23.986   C111.936,252.344,115.518,255.926,119.936,255.926z"/><path d="M119.936,183.967c4.418,0,8-3.582,8-8V151.98c0-4.418-3.582-8-8-8s-8,3.582-8,8v23.986   C111.936,180.385,115.518,183.967,119.936,183.967z"/><path d="M367.794,239.934c8.82,0,15.996-7.175,15.996-15.995c0-8.82-7.176-15.996-15.996-15.996s-15.995,7.175-15.995,15.996   C351.799,232.759,358.975,239.934,367.794,239.934z"/><path d="M415.767,239.934c8.82,0,15.996-7.175,15.996-15.995c0-8.82-7.176-15.996-15.996-15.996s-15.996,7.175-15.996,15.996   C399.771,232.759,406.947,239.934,415.767,239.934z"/><path d="M367.794,191.962c8.82,0,15.996-7.175,15.996-15.995s-7.176-15.995-15.996-15.995s-15.995,7.175-15.995,15.995   S358.975,191.962,367.794,191.962z"/><path d="M415.767,191.962c8.82,0,15.996-7.175,15.996-15.995s-7.176-15.995-15.996-15.995s-15.996,7.175-15.996,15.995   S406.947,191.962,415.767,191.962z"/></g><path d="M488.037,144c0-0.18-0.015-0.355-0.027-0.532V40.012c0-9.386-4.093-40.009-56.759-40.009h-63.156  c-0.02,0-0.038-0.003-0.058-0.003c-22.056,0-40,17.944-40,40c0,0.324,0.025,0.643,0.063,0.957v238.387  c0,20.204-8.601,39.621-23.597,53.271c-15.188,13.825-34.866,20.372-55.41,18.439c-36.488-3.436-65.071-35.964-65.071-74.054  V144.309c0.004-0.103,0.016-0.205,0.016-0.309s-0.012-0.206-0.016-0.309V40.309c0.004-0.103,0.016-0.205,0.016-0.309  c0-22.056-17.944-40-40-40c-0.02,0-0.038,0.003-0.058,0.003h-79.98c-22.061,0-40.009,17.948-40.009,40.009v235.239  c0,61.309,23.121,119.615,65.104,164.177c42.343,44.945,99.126,70.69,159.892,72.494c2.37,0.07,4.73,0.105,7.09,0.105  c60.61-0.001,117.702-23.138,161.434-65.592c22.056-21.41,39.396-46.498,51.542-74.567c12.58-29.072,18.958-59.976,18.958-91.852  V144.532C488.022,144.355,488.037,144.18,488.037,144z M406.365,434.955c-40.721,39.53-93.87,61.074-150.304,61.072  c-2.193,0-4.398-0.033-6.601-0.098c-56.493-1.676-109.31-25.638-148.721-67.472C61.564,386.875,39.99,332.465,39.99,275.251V152  h88.047c4.418,0,8-3.582,8-8s-3.582-8-8-8H39.99V40.012c0-13.239,10.771-24.009,24.009-24.009h80.038  c0.013,0,0.026-0.002,0.039-0.002c13.147,0.021,23.845,10.667,23.956,23.793c-0.002,0.069-0.01,0.136-0.01,0.206v96h-7.986  c-4.418,0-8,3.582-8,8s3.582,8,8,8h7.986v125c0,22.243,8.018,43.7,22.576,60.418c14.802,16.998,35.043,27.498,56.995,29.565  c2.883,0.271,5.748,0.406,8.597,0.406c21.936-0.001,42.656-7.989,59.084-22.942c18.32-16.675,28.827-40.405,28.827-65.103V152  h87.938c4.418,0,8-3.582,8-8s-3.582-8-8-8H344.1V40c0-0.277-0.014-0.551-0.042-0.82c0.434-12.842,11-23.158,23.941-23.179  c0.013,0,0.026,0.002,0.039,0.002h63.214c25.903,0,40.759,8.751,40.759,24.009V136h-7.975c-4.418,0-8,3.582-8,8s3.582,8,8,8h7.975  v128.016C472.01,338.835,448.697,393.86,406.365,434.955z" transform="matrix(0.0781208798289299 0 0 0.0781208798289299 155 330)" id="L1_854"/><g transform="matrix(0.13671875 0 0 0.13671875 315 140)" id="L1_855"><path d="M304,160c0-5.123-0.805-10.169-2.392-14.998c-1.379-4.197-5.902-6.479-10.098-5.102c-4.198,1.379-6.482,5.9-5.103,10.098   C287.464,153.212,288,156.577,288,160c0,17.645-14.355,32-32,32s-32-14.355-32-32s14.355-32,32-32c3.785,0,7.486,0.652,11,1.938   c4.15,1.519,8.744-0.613,10.263-4.762c1.519-4.149-0.613-8.744-4.762-10.263C267.219,112.981,261.668,112,256,112   c-26.467,0-48,21.533-48,48s21.533,48,48,48S304,186.468,304,160z"/><path d="M362.8,337.74c-6.429-6.768-12.821-11.898-16.698-14.788C355.164,293.051,360,260.978,360,228   c0-91.433-36.996-175.999-98.963-226.215c-2.937-2.38-7.137-2.38-10.073,0C188.996,52.001,152,136.568,152,228   c0,32.978,4.837,65.051,13.898,94.953c-3.877,2.89-10.269,8.02-16.698,14.788C135.133,352.548,128,367.439,128,382v122   c0,3.235,1.949,6.152,4.938,7.391c0.99,0.41,2.029,0.609,3.06,0.609c2.082,0,4.128-0.813,5.659-2.343l81.789-81.79   c7.648,8.595,15.853,16.563,24.554,23.864V503c0,4.418,3.582,8,8,8s8-3.582,8-8v-51.268c8.701-7.301,16.906-15.27,24.554-23.864   l81.789,81.79c1.53,1.53,3.576,2.343,5.659,2.343c1.03,0,2.07-0.199,3.06-0.609c2.989-1.238,4.938-4.155,4.938-7.391V382   C384,367.439,376.867,352.548,362.8,337.74z M144,484.687V382c0-12.767,9.018-24.998,16.582-33.01   c3.765-3.988,7.565-7.36,10.686-9.919c10.254,28.139,24.385,54.013,41.899,76.449L144,484.687z M264,430.271V328   c0-4.418-3.582-8-8-8s-8,3.582-8,8v102.271c-5.955-5.685-11.625-11.727-16.985-18.109c-0.357-0.652-0.806-1.266-1.358-1.818   c-0.175-0.175-0.358-0.337-0.545-0.492C190.317,362.437,168,297.387,168,228c0-84.128,32.782-161.908,88-209.571   C311.218,66.092,344,143.872,344,228c0,69.386-22.317,134.436-61.112,181.851c-0.187,0.155-0.37,0.317-0.545,0.492   c-0.552,0.552-1.001,1.166-1.358,1.818C275.625,418.544,269.955,424.586,264,430.271z M368,484.687l-69.167-69.167   c17.525-22.449,31.662-48.34,41.917-76.499C352.011,348.262,368,365.088,368,382V484.687z"/></g><path d="M448,448H280v-56h24c13.234,0,24-10.766,24-24c0-10.43-6.687-19.327-16-22.629V80.06C312,35.915,276.085,0,231.94,0H192  c-30.878,0-56,25.122-56,56c0,30.841,25.06,55.938,55.886,56c0.015,0,0.029,0,0.043,0c4.45,0,8.07,3.62,8.07,8.07V144h-7.994  c-8.826,0-16.006,7.181-16.006,16.006V192c0,8.826,7.181,16.006,16.006,16.006H200v15.987h-7.994  c-8.826,0-16.006,7.18-16.006,16.006v31.994c0,8.826,7.181,16.006,16.006,16.006H200v57.371c-9.313,3.302-16,12.199-16,22.629  c0,13.234,10.766,24,24,24h24v56H64c-13.234,0-24,10.766-24,24v16c0,13.234,10.766,24,24,24h384c13.234,0,24-10.766,24-24v-16  C472,458.766,461.234,448,448,448z M192,192l0.006-32H200v32.003L192,192z M192,271.994l0.006-32H200v32.003L192,271.994z M200,368  c0-4.411,3.589-8,8-8h48c4.418,0,8-3.582,8-8s-3.582-8-8-8h-40V120.07c0-13.216-10.708-23.979-23.903-24.07  c-0.032,0-0.065,0-0.097,0c-22.056,0-40-17.944-40-40s17.944-40,40-40h39.94C267.263,16,296,44.737,296,80.06V88h-24  c-4.418,0-8,3.582-8,8s3.582,8,8,8h24v16h-24c-4.418,0-8,3.582-8,8s3.582,8,8,8h24v16h-24c-4.418,0-8,3.582-8,8s3.582,8,8,8h24v16  h-24c-4.418,0-8,3.582-8,8s3.582,8,8,8h24v16h-24c-4.418,0-8,3.582-8,8s3.582,8,8,8h24v16h-24c-4.418,0-8,3.582-8,8s3.582,8,8,8h24  v16h-24c-4.418,0-8,3.582-8,8s3.582,8,8,8h24v16h-24c-4.418,0-8,3.582-8,8s3.582,8,8,8h24v16h-8c-4.418,0-8,3.582-8,8s3.582,8,8,8  h16c4.411,0,8,3.589,8,8s-3.589,8-8,8h-96C203.589,376,200,372.411,200,368z M248,392h16v56h-16V392z M456,488c0,4.411-3.589,8-8,8  H64c-4.411,0-8-3.589-8-8v-16c0-4.411,3.589-8,8-8h384c4.411,0,8,3.589,8,8V488z" transform="matrix(0.1171875 0 0 0.1171875 229 231.00000041484833)" id="L1_856"/></defs><g fi:class="KUsePattern" opacity="0.5"><pattern id="pattern_L1_846" width="350" height="350" patternUnits="userSpaceOnUse"><use xlink:href="#L1_846" x="-350" y="-350"/><use xlink:href="#L1_846" x="0" y="-350"/><use xlink:href="#L1_846" x="350" y="-350"/><use xlink:href="#L1_846" x="-350" y="0"/><use xlink:href="#L1_846" x="0" y="0"/><use xlink:href="#L1_846" x="350" y="0"/><use xlink:href="#L1_846" x="-350" y="350"/><use xlink:href="#L1_846" x="0" y="350"/><use xlink:href="#L1_846" x="350" y="350"/></pattern><rect x="0" y="0" width="100%" height="100%" fill="url(#pattern_L1_846)"/></g><g fi:class="KUsePattern" opacity="0.51"><pattern id="pattern_L1_847" width="350" height="350" patternUnits="userSpaceOnUse"><use xlink:href="#L1_847" x="-350" y="-350"/><use xlink:href="#L1_847" x="0" y="-350"/><use xlink:href="#L1_847" x="350" y="-350"/><use xlink:href="#L1_847" x="-350" y="0"/><use xlink:href="#L1_847" x="0" y="0"/><use xlink:href="#L1_847" x="350" y="0"/><use xlink:href="#L1_847" x="-350" y="350"/><use xlink:href="#L1_847" x="0" y="350"/><use xlink:href="#L1_847" x="350" y="350"/></pattern><rect x="0" y="0" width="100%" height="100%" fill="url(#pattern_L1_847)"/></g><g fi:class="KUsePattern" opacity="0.51"><pattern id="pattern_L1_848" width="350" height="350" patternUnits="userSpaceOnUse"><use xlink:href="#L1_848" x="-350" y="-350"/><use xlink:href="#L1_848" x="0" y="-350"/><use xlink:href="#L1_848" x="350" y="-350"/><use xlink:href="#L1_848" x="-350" y="0"/><use xlink:href="#L1_848" x="0" y="0"/><use xlink:href="#L1_848" x="350" y="0"/><use xlink:href="#L1_848" x="-350" y="350"/><use xlink:href="#L1_848" x="0" y="350"/><use xlink:href="#L1_848" x="350" y="350"/></pattern><rect x="0" y="0" width="100%" height="100%" fill="url(#pattern_L1_848)"/></g><g fi:class="KUsePattern" opacity="0.51"><pattern id="pattern_L1_849" width="350" height="350" patternUnits="userSpaceOnUse"><use xlink:href="#L1_849" x="-350" y="-350"/><use xlink:href="#L1_849" x="0" y="-350"/><use xlink:href="#L1_849" x="350" y="-350"/><use xlink:href="#L1_849" x="-350" y="0"/><use xlink:href="#L1_849" x="0" y="0"/><use xlink:href="#L1_849" x="350" y="0"/><use xlink:href="#L1_849" x="-350" y="350"/><use xlink:href="#L1_849" x="0" y="350"/><use xlink:href="#L1_849" x="350" y="350"/></pattern><rect x="0" y="0" width="100%" height="100%" fill="url(#pattern_L1_849)"/></g><g fi:class="KUsePattern" opacity="0.5"><pattern id="pattern_L1_850" width="350" height="350" patternUnits="userSpaceOnUse"><use xlink:href="#L1_850" x="-350" y="-350"/><use xlink:href="#L1_850" x="0" y="-350"/><use xlink:href="#L1_850" x="350" y="-350"/><use xlink:href="#L1_850" x="-350" y="0"/><use xlink:href="#L1_850" x="0" y="0"/><use xlink:href="#L1_850" x="350" y="0"/><use xlink:href="#L1_850" x="-350" y="350"/><use xlink:href="#L1_850" x="0" y="350"/><use xlink:href="#L1_850" x="350" y="350"/></pattern><rect x="0" y="0" width="100%" height="100%" fill="url(#pattern_L1_850)"/></g><g fi:class="KUsePattern" opacity="0.51"><pattern id="pattern_L1_851" width="350" height="350" patternUnits="userSpaceOnUse"><use xlink:href="#L1_851" x="-350" y="-350"/><use xlink:href="#L1_851" x="0" y="-350"/><use xlink:href="#L1_851" x="350" y="-350"/><use xlink:href="#L1_851" x="-350" y="0"/><use xlink:href="#L1_851" x="0" y="0"/><use xlink:href="#L1_851" x="350" y="0"/><use xlink:href="#L1_851" x="-350" y="350"/><use xlink:href="#L1_851" x="0" y="350"/><use xlink:href="#L1_851" x="350" y="350"/></pattern><rect x="0" y="0" width="100%" height="100%" fill="url(#pattern_L1_851)"/></g><g fi:class="KUsePattern" opacity="0.5"><pattern id="pattern_L1_853" width="350" height="350" patternUnits="userSpaceOnUse"><use xlink:href="#L1_853" x="-350" y="-350"/><use xlink:href="#L1_853" x="0" y="-350"/><use xlink:href="#L1_853" x="350" y="-350"/><use xlink:href="#L1_853" x="-350" y="0"/><use xlink:href="#L1_853" x="0" y="0"/><use xlink:href="#L1_853" x="350" y="0"/><use xlink:href="#L1_853" x="-350" y="350"/><use xlink:href="#L1_853" x="0" y="350"/><use xlink:href="#L1_853" x="350" y="350"/></pattern><rect x="0" y="0" width="100%" height="100%" fill="url(#pattern_L1_853)"/></g><g fi:class="KUsePattern" opacity="0.5"><pattern id="pattern_L1_854" width="350" height="350" patternUnits="userSpaceOnUse"><use xlink:href="#L1_854" x="-350" y="-350"/><use xlink:href="#L1_854" x="0" y="-350"/><use xlink:href="#L1_854" x="350" y="-350"/><use xlink:href="#L1_854" x="-350" y="0"/><use xlink:href="#L1_854" x="0" y="0"/><use xlink:href="#L1_854" x="350" y="0"/><use xlink:href="#L1_854" x="-350" y="350"/><use xlink:href="#L1_854" x="0" y="350"/><use xlink:href="#L1_854" x="350" y="350"/></pattern><rect x="0" y="0" width="100%" height="100%" fill="url(#pattern_L1_854)"/></g><g fi:class="KUsePattern" opacity="0.5"><pattern id="pattern_L1_855" width="350" height="350" patternUnits="userSpaceOnUse"><use xlink:href="#L1_855" x="-350" y="-350"/><use xlink:href="#L1_855" x="0" y="-350"/><use xlink:href="#L1_855" x="350" y="-350"/><use xlink:href="#L1_855" x="-350" y="0"/><use xlink:href="#L1_855" x="0" y="0"/><use xlink:href="#L1_855" x="350" y="0"/><use xlink:href="#L1_855" x="-350" y="350"/><use xlink:href="#L1_855" x="0" y="350"/><use xlink:href="#L1_855" x="350" y="350"/></pattern><rect x="0" y="0" width="100%" height="100%" fill="url(#pattern_L1_855)"/></g><g fi:class="KUsePattern" opacity="0.51"><pattern id="pattern_L1_856" width="350" height="350" patternUnits="userSpaceOnUse"><use xlink:href="#L1_856" x="-350" y="-350"/><use xlink:href="#L1_856" x="0" y="-350"/><use xlink:href="#L1_856" x="350" y="-350"/><use xlink:href="#L1_856" x="-350" y="0"/><use xlink:href="#L1_856" x="0" y="0"/><use xlink:href="#L1_856" x="350" y="0"/><use xlink:href="#L1_856" x="-350" y="350"/><use xlink:href="#L1_856" x="0" y="350"/><use xlink:href="#L1_856" x="350" y="350"/></pattern><rect x="0" y="0" width="100%" height="100%" fill="url(#pattern_L1_856)"/></g></svg>