<svg xmlns="http://www.w3.org/2000/svg" xmlns:xlink="http://www.w3.org/1999/xlink" xmlns:fi="http://pattern.flaticon.com/" x="0" y="0" width="700" height="350" viewBox="0 0 700 350"><rect x="0px" y="0px" width="100%" height="100%" opacity="1" fill="#14151a"/><defs><path d="M360,80V32h-72V0h-80v32h-72v48h96v48h-88v112h40v16h-24v80h24v16h-40v112h64v32h80v-32h64V352h-88v-16h72v-80h-24v-16h40    V128h-40V80H360z M224,16h48v16h-48V16z M272,480h-48v-16h48V480z M336,416h-16v16h16v16H160v-16h144v-16H160v-16h176V416z     M336,368v16H160v-16H336z M200,352v-16h48v16H200z M320,272v48H176v-48H320z M200,256v-16h96v16H200z M336,224H160v-16h176V224z     M336,144v16H192v16h144v16H160v-16h16v-16h-16v-16H336z M248,128V80h48v48H248z M152,64V48h192v16H152z" transform="matrix(0.17526880469667763 0.04696313467684293 -0.04696313467684293 0.17526880469667763 -31.819804734407533 -55.11351953412163)" id="L1_69" fill="#ffffff"/><g transform="matrix(0.04032257944345474 0 0 0.04032257944345474 77.5 340)" id="L1_70"><path d="M456,144H312v-32h24V48h-16V24c0-13.232-10.768-24-24-24h-32c-13.232,0-24,10.768-24,24v24h-80v64h24v32h-80v48h51.056     L176,233.888V360c0,10.416,6.712,19.216,16,22.528V408c0,13.232,10.768,24,24,24h0.936l8,64h46.128l8-64H280     c13.232,0,24-10.768,24-24v-25.472c9.288-3.312,16-12.112,16-22.528V240v-8v-9.664l136-32V144z M256,24c0-4.408,3.592-8,8-8h32     c4.408,0,8,3.592,8,8v24h-48V24z M176,96V64h144v32h-88v16h64v32h-96v-32h16V96H176z M256.936,480h-17.872l-6-48h29.88     L256.936,480z M304,360c0,4.408-3.592,8-8,8h-56v16h48v24c0,4.408-3.592,8-8,8h-64c-4.408,0-8-3.592-8-8v-24h16v-16h-24     c-4.408,0-8-3.592-8-8V240h16h80h16V360z M224,224v-16h48v16H224z M392,188.96l-88,20.704V224h-16v-32h-80v32h-19.056l-24-48H120     v-16h272V188.96z M440,177.664l-32,7.528V160h32V177.664z" fill="#ffffff"/><path d="M96,224H72v-32H56v32H32v48H0v64h16v8c0,10.416,6.712,19.216,16,22.528v99.896L51.72,496h24.56L96,466.424v-99.896     c9.288-3.312,16-12.112,16-22.528v-8h16v-64H96V224z M48,240h32v32H48V240z M80,461.576L67.72,480h-7.44L48,461.576V368h32     V461.576z M112,288v32H64v16h32v8c0,4.408-3.592,8-8,8H40c-4.408,0-8-3.592-8-8v-8h16v-16H16v-32H112z" fill="#ffffff"/><path d="M464,304v-48h-24v-32h-16v32h-24v48h-32v64h16v8c0,10.416,6.712,19.216,16,22.528v59.36L419.056,496h25.888L464,457.888     v-59.36c9.288-3.312,16-12.112,16-22.528v-8h16v-64H464z M416,272h32v32h-32V272z M448,454.112L435.056,480h-6.112L416,454.112     V400h32V454.112z M480,352h-48v16h32v8c0,4.408-3.592,8-8,8h-48c-4.408,0-8-3.592-8-8v-8h16v-16h-32v-32h96V352z" fill="#ffffff"/></g><g transform="matrix(0.08064515888690948 0 0 0.08064515888690948 155 330)" id="L1_71"><path d="M400,224V0H96v224h112v100.984c0,2.808-1.536,5.44-4.016,6.872c-14.624,8.48-26.664,21.184-34.336,36.144H168v-16h-16v16     h-16v80h16v16h16v-16h1.64c14.968,29.328,45.168,48,78.36,48s63.392-18.672,78.36-48H328v16h16v-16h16v-80h-16v-16h-16v16h-1.648     c-7.672-14.96-19.712-27.664-34.336-36.144c-2.48-1.432-4.016-4.064-4.016-6.872V224H400z M313.968,379.208l2.096,4.8H344v48     h-27.936l-2.096,4.8C302.496,463.04,276.6,480,248,480c-28.6,0-54.496-16.96-65.968-43.2l-2.096-4.8H152v-48h27.936l2.096-4.8     c6.096-13.936,16.736-25.832,29.968-33.504c7.408-4.288,12-12.224,12-20.72V224h48v100.984c0,8.496,4.592,16.432,12,20.72     C297.232,353.368,307.872,365.272,313.968,379.208z M112,208V80h32v67.312L188.688,192h118.624L352,147.312V80v-8v-8H112V48h240     V32H112V16h272v16h-16v16h16v16h-16v16h16v128H112z M296,128c0,26.472-21.528,48-48,48s-48-21.528-48-48s21.528-48,48-48     S296,101.528,296,128z M290.192,80H336v60.688L300.688,176h-10.496C303.528,164.264,312,147.12,312,128     S303.528,91.736,290.192,80z M184,128c0,19.12,8.472,36.264,21.808,48h-10.496L160,140.688V80h45.808     C192.472,91.736,184,108.88,184,128z" fill="#ffffff"/><path d="M192,408c0,30.88,25.128,56,56,56s56-25.12,56-56s-25.128-56-56-56S192,377.12,192,408z M288,408     c0,22.056-17.944,40-40,40c-22.056,0-40-17.944-40-40c0-22.056,17.944-40,40-40C270.056,368,288,385.944,288,408z" fill="#ffffff"/></g><path d="M372.416,163.208c11.528-2.944,19.584-13.304,19.584-25.2C392,123.664,380.336,112,365.36,112    c-2.168,0-4.336,0.272-6.432,0.808l-6.928,1.76v-26.16l20.416-5.2C383.944,80.264,392,69.904,392,58.008    C392,43.664,380.336,32,365.36,32c-2.168,0-4.336,0.272-6.432,0.808L352,34.568V0H144v87.592l-20.416,5.2    C112.056,95.736,104,106.096,104,117.992C104,132.336,115.664,144,130.584,144c2.168,0,4.328-0.272,6.424-0.808l6.992-1.776    v26.176l-20.416,5.2c-11.528,2.944-19.584,13.304-19.584,25.2C104,212.336,115.664,224,130.584,224    c2.168,0,4.328-0.272,6.424-0.808l6.992-1.776v26.176l-20.416,5.2c-11.528,2.936-19.584,13.304-19.584,25.2    C104,292.336,115.664,304,130.584,304c2.16,0,4.304-0.264,6.424-0.808l6.992-1.776v26.176l-20.416,5.208    C112.056,335.736,104,346.096,104,357.992C104,372.336,115.664,384,130.584,384c2.16,0,4.304-0.264,6.424-0.808l6.992-1.776    v26.176l-20.416,5.208C112.056,415.736,104,426.096,104,437.992C104,452.336,115.664,464,130.584,464    c2.16,0,4.304-0.264,6.424-0.808l6.992-1.776V496h208v-87.592l20.416-5.2c11.528-2.944,19.584-13.304,19.584-25.2    C392,363.664,380.336,352,365.36,352c-2.16,0-4.312,0.264-6.432,0.808l-6.928,1.76V328.4l20.416-5.2    C383.944,320.264,392,309.904,392,298.008C392,283.664,380.336,272,365.36,272c-2.16,0-4.312,0.264-6.416,0.8L352,274.568v-26.16    l20.416-5.2c11.528-2.944,19.584-13.304,19.584-25.2C392,203.664,380.336,192,365.36,192c-2.168,0-4.336,0.272-6.432,0.808    l-6.928,1.76v-26.16L372.416,163.208z M160,16h176v22.648L160,83.512V16z M133.056,127.688c-0.808,0.208-1.64,0.312-3.048,0.312    c-5.512,0-10.008-4.488-10.008-10.008c0-4.576,3.104-8.568,7.536-9.696L362.88,48.312c0.808-0.208,1.64-0.312,3.112-0.312    C371.504,48,376,52.488,376,58.008c0,4.576-3.104,8.568-7.536,9.696L133.056,127.688z M336,480H160v-22.664l176-44.856V480z     M362.864,368.312c0.816-0.208,1.656-0.312,3.128-0.312c5.512,0,10.008,4.496,10.008,10.008c0,4.576-3.104,8.56-7.536,9.696    l-235.392,59.984c-0.816,0.208-1.648,0.312-3.064,0.312c-5.512,0-10.008-4.496-10.008-10.008c0-4.576,3.104-8.56,7.536-9.696    l50.44-12.856l-3.952-15.504L160,403.512v-26.176l176-44.856v26.168l-145.976,37.208l3.952,15.504L362.864,368.312z     M362.88,288.304c0.816-0.2,1.648-0.304,3.112-0.304c5.512,0,10.008,4.496,10.008,10.008c0,4.576-3.104,8.56-7.536,9.696    l-235.392,59.984c-0.816,0.208-1.648,0.312-3.064,0.312c-5.512,0-10.008-4.496-10.008-10.008c0-4.576,3.104-8.56,7.536-9.696    L362.88,288.304z M160,323.512v-26.176l176-44.848v26.16L160,323.512z M362.88,208.312c0.808-0.208,1.64-0.312,3.112-0.312    c5.512,0,10.008,4.488,10.008,10.008c0,4.576-3.104,8.568-7.536,9.696l-235.392,59.984c-0.816,0.208-1.648,0.312-3.064,0.312    c-5.512,0-10.008-4.496-10.008-10.008c0-4.576,3.104-8.56,7.536-9.696L362.88,208.312z M160,243.512v-26.176l176-44.848v26.16    L160,243.512z M133.056,207.688c-0.808,0.208-1.64,0.312-3.048,0.312c-5.512,0-10.008-4.488-10.008-10.008    c0-4.576,3.104-8.568,7.536-9.696l178.44-45.48l-3.952-15.504L160,163.512v-26.176l176-44.848v26.16l-17.976,4.584l3.952,15.504    l40.904-10.432c0.808-0.2,1.64-0.304,3.112-0.304c5.512,0,10.008,4.488,10.008,10.008c0,4.576-3.104,8.568-7.536,9.696    L133.056,207.688z" transform="matrix(0.04032257944345474 0 0 0.04032257944345474 252.5 340)" id="L1_72" fill="#ffffff"/><g transform="matrix(0.08064775913953781 0 0 0.08064775913953781 67.5 67.5)" id="L1_73"><path d="M447.992,48V0h-80v48h-16v12.392C331.264,24.368,292.456,0,247.992,0s-83.272,24.368-104,60.392V48h-16V0h-80v48h-16     v143.016c0,18.392,12.464,34.344,30.304,38.808l111.512,27.88c10.704,2.672,18.184,12.248,18.184,23.28v97.856     c-12.376,15.328-17.952,35.144-15.36,54.84c4.248,32.264,30.832,58.28,63.192,61.864c2.664,0.296,5.336,0.44,7.992,0.44     c17.736,0,34.952-6.48,48.184-18.336c15.248-13.648,23.992-33.2,23.992-53.648c0-16.44-5.656-32.352-16-45.16v-97.856     c0-11.032,7.48-20.608,18.176-23.28l111.512-27.88c17.848-4.464,30.312-20.416,30.312-38.808V48H447.992z M383.992,16h16v16h16     V16h16v32h-48V16z M247.992,16c57.344,0,104,46.656,104,104s-46.656,104-104,104s-104-46.656-104-104S190.648,16,247.992,16z      M63.992,16h16v16h16V16h16v32h-48V16z M447.992,191.016c0,11.032-7.48,20.608-18.176,23.28l-111.512,27.88     c-17.848,4.464-30.312,20.416-30.312,38.808v103.8l2,2.272c9.024,10.248,14,23.368,14,36.944c0,15.904-6.8,31.112-18.656,41.728     c-12.024,10.768-27.584,15.712-43.752,13.912c-25.144-2.776-45.792-22.992-49.096-48.048c-2.16-16.392,2.64-32.208,13.504-44.544     l2-2.264v-103.8c0-18.392-12.464-34.344-30.304-38.808l-111.52-27.88c-10.696-2.672-18.176-12.248-18.176-23.28V64h80v56     c0,57.952,41.288,106.432,96,117.584V392h0.248c-9.8,7.296-16.248,18.872-16.248,32c0,22.056,17.944,40,40,40     c22.056,0,40-17.944,40-40c0-13.128-6.448-24.704-16.248-32h0.248v-24h-16v16.808c-2.584-0.528-5.264-0.808-8-0.808     c-2.736,0-5.416,0.28-8,0.808V239.592c2.656,0.176,5.296,0.408,8,0.408s5.344-0.232,8-0.408V352h16V237.584     c54.712-11.152,96-59.632,96-117.584V64h80V191.016z M247.992,400c13.232,0,24,10.768,24,24s-10.768,24-24,24s-24-10.768-24-24     S234.76,400,247.992,400z" fill="#ffffff"/><path d="M247.992,208c48.52,0,88-39.48,88-88s-39.48-88-88-88c-48.52,0-88,39.48-88,88C159.992,168.52,199.472,208,247.992,208z      M247.992,48c39.704,0,72,32.304,72,72s-32.296,72-72,72c-39.704,0-72-32.304-72-72S208.288,48,247.992,48z" fill="#ffffff"/></g><g transform="matrix(0.08064515888690948 0 0 0.08064515888690948 242.5 67.5)" id="L1_74"><path d="M248,0C111.256,0,0,111.256,0,248s111.256,248,248,248s248-111.256,248-248S384.744,0,248,0z M248,480     C120.072,480,16,375.928,16,248S120.072,16,248,16s232,104.072,232,232S375.928,480,248,480z" fill="#ffffff"/><path d="M288,248c0-22.056-17.944-40-40-40c-22.056,0-40,17.944-40,40c0,22.056,17.944,40,40,40C270.056,288,288,270.056,288,248     z M224,248c0-13.232,10.768-24,24-24s24,10.768,24,24s-10.768,24-24,24S224,261.232,224,248z" fill="#ffffff"/><path d="M248,352c-57.344,0-104-46.656-104-104s46.656-104,104-104s104,46.656,104,104c0,19.144-5.24,37.84-15.152,54.088     l13.656,8.336C361.952,291.664,368,270.088,368,248c0-66.168-53.832-120-120-120s-120,53.832-120,120s53.832,120,120,120     c35.944,0,69.688-15.912,92.6-43.664l-12.344-10.184C308.4,338.2,279.152,352,248,352z" fill="#ffffff"/><path d="M272,176c0-13.232-10.768-24-24-24s-24,10.768-24,24s10.768,24,24,24S272,189.232,272,176z M240,176c0-4.408,3.592-8,8-8     s8,3.592,8,8s-3.592,8-8,8C243.592,184,240,180.408,240,176z" fill="#ffffff"/><path d="M202.352,233.168c4.088-12.584-2.824-26.152-15.408-30.24c-12.608-4.088-26.152,2.832-30.24,15.408     c-4.088,12.592,2.824,26.16,15.408,30.248c2.456,0.8,4.952,1.176,7.4,1.176C189.624,249.752,199.056,243.296,202.352,233.168z      M187.136,228.224c-1.36,4.192-5.872,6.504-10.08,5.136c-4.192-1.36-6.496-5.888-5.136-10.08c1.096-3.376,4.24-5.528,7.616-5.528     c0.816,0,1.648,0.128,2.464,0.392C186.192,219.504,188.496,224.024,187.136,228.224z" fill="#ffffff"/><path d="M191.576,325.664c4.248,3.088,9.176,4.568,14.072,4.568c7.432,0,14.76-3.432,19.456-9.888     c7.776-10.704,5.392-25.744-5.312-33.52c-10.712-7.768-25.744-5.392-33.528,5.312     C178.488,302.848,180.864,317.888,191.576,325.664z M199.208,301.544c2.592-3.568,7.608-4.368,11.176-1.768     c3.568,2.592,4.36,7.608,1.768,11.168c-2.592,3.568-7.616,4.36-11.176,1.776C197.408,310.128,196.616,305.12,199.208,301.544z" fill="#ffffff"/><path d="M290.352,330.24c4.888,0,9.824-1.488,14.072-4.568c10.704-7.784,13.088-22.824,5.312-33.528     c-7.784-10.696-22.824-13.08-33.528-5.312c-10.704,7.776-13.08,22.816-5.312,33.52     C275.592,326.816,282.928,330.24,290.352,330.24z M285.616,299.776c3.576-2.6,8.592-1.792,11.176,1.768     c2.592,3.576,1.8,8.584-1.768,11.176c-3.576,2.584-8.592,1.792-11.176-1.776C281.256,307.376,282.048,302.368,285.616,299.776z" fill="#ffffff"/><path d="M323.896,248.576c12.584-4.088,19.496-17.656,15.408-30.248c-4.096-12.576-17.656-19.504-30.24-15.408     c-12.584,4.088-19.496,17.656-15.408,30.24c3.296,10.128,12.728,16.584,22.848,16.584     C318.944,249.752,321.44,249.376,323.896,248.576z M308.864,228.224c-1.36-4.192,0.944-8.712,5.136-10.08     c0.816-0.264,1.648-0.392,2.464-0.392c3.376,0,6.512,2.152,7.616,5.528c1.36,4.192-0.936,8.72-5.136,10.08     C314.76,234.728,310.232,232.416,308.864,228.224z" fill="#ffffff"/><rect x="192px" y="32px" width="16px" height="16px" fill="#ffffff"/><rect x="216px" y="56px" width="16px" height="16px" fill="#ffffff"/><rect x="240px" y="80px" width="16px" height="16px" fill="#ffffff"/><rect x="264px" y="104px" width="16px" height="16px" fill="#ffffff"/><rect x="58px" y="126px" width="16px" height="16px" transform="matrix(-0.7071 -0.7071 0.7071 -0.7071 18.9876 277.5888)" fill="#ffffff"/><rect x="92px" y="126px" width="16px" height="16px" transform="matrix(0.7071 -0.7071 0.7071 0.7071 -65.8068 110.86)" fill="#ffffff"/><rect x="126px" y="126px" width="16px" height="16px" transform="matrix(0.7071 0.7071 -0.7071 0.7071 134.8635 -55.8613)" fill="#ffffff"/><rect x="160px" y="126px" width="16px" height="16px" transform="matrix(0.7071 0.7071 -0.7071 0.7071 144.8071 -79.8595)" fill="#ffffff"/><rect x="32px" y="288px" width="16px" height="16px" fill="#ffffff"/><rect x="56px" y="264px" width="16px" height="16px" fill="#ffffff"/><rect x="80px" y="240px" width="16px" height="16px" fill="#ffffff"/><rect x="104px" y="216px" width="16px" height="16px" fill="#ffffff"/><rect x="126px" y="421px" width="16px" height="16px" transform="matrix(-0.7071 -0.7071 0.7071 -0.7071 -73.141 827.7531)" fill="#ffffff"/><rect x="126px" y="387px" width="16px" height="16px" transform="matrix(0.7071 0.7071 -0.7071 0.7071 318.8344 20.3665)" fill="#ffffff"/><rect x="126px" y="353px" width="16px" height="16px" transform="matrix(0.7071 0.7071 -0.7071 0.7071 294.8362 10.4135)" fill="#ffffff"/><rect x="126px" y="319px" width="16px" height="16px" transform="matrix(-0.7071 -0.7071 0.7071 -0.7071 -1.1346 653.9156)" fill="#ffffff"/><rect x="288px" y="448px" width="16px" height="16px" fill="#ffffff"/><rect x="264px" y="424px" width="16px" height="16px" fill="#ffffff"/><rect x="240px" y="400px" width="16px" height="16px" fill="#ffffff"/><rect x="216px" y="376px" width="16px" height="16px" fill="#ffffff"/><rect x="421px" y="353px" width="16px" height="16px" transform="matrix(-0.7071 -0.7071 0.7071 -0.7071 477.0232 919.7997)" fill="#ffffff"/><rect x="387px" y="353px" width="16px" height="16px" transform="matrix(-0.7071 -0.7071 0.7071 -0.7071 419.0046 895.8276)" fill="#ffffff"/><rect x="353px" y="353px" width="16px" height="16px" transform="matrix(-0.7071 -0.7071 0.7071 -0.7071 361.1361 871.8275)" fill="#ffffff"/><rect x="319px" y="353px" width="16px" height="16px" transform="matrix(-0.7071 -0.7071 0.7071 -0.7071 303.2008 847.799)" fill="#ffffff"/><rect x="448px" y="192px" width="16px" height="16px" fill="#ffffff"/><rect x="424px" y="216px" width="16px" height="16px" fill="#ffffff"/><rect x="400px" y="240px" width="16px" height="16px" fill="#ffffff"/><rect x="376px" y="264px" width="16px" height="16px" fill="#ffffff"/><rect x="353px" y="58px" width="16px" height="16px" transform="matrix(0.7071 0.7071 -0.7071 0.7071 153.1297 -235.7348)" fill="#ffffff"/><rect x="353px" y="92px" width="16px" height="16px" transform="matrix(0.7071 0.7071 -0.7071 0.7071 177.1392 -225.7865)" fill="#ffffff"/><rect x="353px" y="126px" width="16px" height="16px" transform="matrix(-0.7071 -0.7071 0.7071 -0.7071 521.0967 485.6022)" fill="#ffffff"/><rect x="353px" y="160px" width="16px" height="16px" transform="matrix(0.7071 0.7071 -0.7071 0.7071 225.1355 -205.9041)" fill="#ffffff"/></g><path d="M448,152.004v56h-16v-80h-64v56h16v32h-17.472c-3.312-9.288-12.112-16-22.528-16c-13.232,0-24,10.768-24,24v32h-16v-32    c0-13.232-10.768-24-24-24c-10.416,0-19.216,6.712-22.528,16H238.52c-3.312-9.288-12.112-16-22.528-16    c-2.816,0-5.488,0.576-8,1.472v-17.472h16v-56h-64v48h-48v24H48v16H0v64h48v16h64v24h48v48h48v-17.472    c2.512,0.896,5.184,1.472,8,1.472c13.232,0,24-10.768,24-24v-32h16v32c0,13.232,10.768,24,24,24c10.416,0,19.216-6.712,22.528-16    h18.952c3.312,9.288,12.112,16,22.528,16c13.232,0,24-10.768,24-24v-32h16v72h48v-80h16v56h48v-192H448z M48,264.004H16v-32h32    V264.004z M112,280.004H64v-64h48V280.004z M192,224.004v104v24h-16v-128h-16v80h-32v-112h32v16h16v-64h32v24h-16V224.004z     M224,328.004c0,4.416-3.592,8-8,8s-8-3.584-8-8v-104c0-4.408,3.592-8,8-8s8,3.592,8,8V328.004z M256,280.004h-16v-48h16V280.004z     M288,328.004c0,4.416-3.592,8-8,8c-4.408,0-8-3.584-8-8v-104c0-4.408,3.592-8,8-8c4.408,0,8,3.592,8,8V328.004z M320,320.004h-16    v-48h16V320.004z M352,328.004c0,4.416-3.592,8-8,8c-4.408,0-8-3.584-8-8v-104c0-4.408,3.592-8,8-8c4.408,0,8,3.592,8,8V328.004z     M384,280.004h-16v-48h16V280.004z M416,352.004h-16v-184h-16v-24h32V352.004z M448,272.004h-16v-48h16V272.004z M480,328.004h-16    v-160h16V328.004z" transform="matrix(0.14112675189971924 0 0 0.14112675189971924 315 140)" id="L1_75" fill="#ffffff"/><g transform="matrix(0.1363201766329438 -0.03652688124086529 0.03652688124086529 0.1363201766329438 132.13392952808607 150.25126262355525)" id="L1_76"><path d="M248,0C111.248,0,0,111.248,0,248s111.248,248,248,248s248-111.248,248-248S384.752,0,248,0z M248,480     C120.08,480,16,375.92,16,248S120.08,16,248,16s232,104.08,232,232S375.92,480,248,480z" fill="#ffffff"/><path d="M248,32C128.896,32,32,128.896,32,248s96.896,216,216,216c50.352,0,99.376-17.704,138.032-49.848L375.8,401.856     C340.008,431.608,294.624,448,248,448c-110.28,0-200-89.72-200-200S137.72,48,248,48s200,89.72,200,200     c0,54.976-21.848,106.232-61.536,144.32l11.08,11.544C440.4,362.736,464,307.376,464,248C464,128.896,367.104,32,248,32z" fill="#ffffff"/><path d="M96,248c0,83.816,68.184,152,152,152s152-68.184,152-152S331.816,96,248,96S96,164.184,96,248z M129.472,181.528     l12.104,5.672l-15.416,47.44l-13.152-2.528C115.144,213.904,120.864,196.816,129.472,181.528z M191.208,371.416     c-16.352-7.56-30.912-18.24-42.984-31.312l9.064-9.68l40.352,29.32L191.208,371.416z M304.792,371.408l-6.432-11.672     l40.352-29.32l9.064,9.68C335.704,353.176,321.144,363.856,304.792,371.408z M382.992,232.104l-13.152,2.528l-15.416-47.44     l12.104-5.672C375.136,196.816,380.856,213.904,382.992,232.104z M248,112c9.104,0,18,0.936,26.608,2.648L272.936,128h-49.872     l-1.672-13.352C230,112.936,238.896,112,248,112z M205.784,118.792L208.936,144h78.128l3.152-25.208     c27.368,8.968,50.848,26.408,67.512,49.192l-22.88,10.728l24.136,74.296l25.016-4.8c-0.048,29.672-9.744,57.064-25.976,79.424     l-17.288-18.456l-63.192,45.928l12.272,22.256C276.624,381.632,262.592,384,248,384c-14.592,0-28.624-2.368-41.808-6.64     l12.272-22.256l-63.192-45.928l-17.288,18.456c-16.232-22.36-25.928-49.752-25.976-79.424l25.016,4.8l24.136-74.296     l-22.88-10.728C154.936,145.2,178.424,127.752,205.784,118.792z" fill="#ffffff"/><path d="M248,320c39.704,0,72-32.296,72-72c0-39.704-32.296-72-72-72c-39.704,0-72,32.296-72,72S208.296,320,248,320z M248,192     c30.872,0,56,25.128,56,56s-25.128,56-56,56s-56-25.128-56-56S217.128,192,248,192z" fill="#ffffff"/><path d="M248,288c22.056,0,40-17.944,40-40c0-22.056-17.944-40-40-40c-22.056,0-40,17.944-40,40C208,270.056,225.944,288,248,288     z M248,224c13.232,0,24,10.768,24,24s-10.768,24-24,24s-24-10.768-24-24S234.768,224,248,224z" fill="#ffffff"/><rect x="224px" y="64px" width="16px" height="16px" fill="#ffffff"/><rect x="256px" y="64px" width="16px" height="16px" fill="#ffffff"/><rect x="192px" y="64px" width="16px" height="16px" fill="#ffffff"/><rect x="288px" y="64px" width="16px" height="16px" fill="#ffffff"/></g><g transform="matrix(0.18145161867141724 0 0 0.18145161867141724 217.5 217.5)" id="L1_77"><path d="M432,240h-56v-96h16V96h-16V64h-16V48h-16v16h-16v32h-5.856C306.016,87.264,296,70.68,296,52.224V0h-96v52.224     c0,18.456-10.016,35.04-26.144,43.776H168V64h-16V48h-16v16h-16v32h-16v48h16v96H64c-35.288,0-64,28.712-64,64     c0,35.288,28.712,64,64,64h56v128h256V368h56c35.288,0,64-28.712,64-64C496,268.712,467.288,240,432,240z M120,352H64     c-26.472,0-48-21.528-48-48s21.528-48,48-48h56V352z M344,80h16v16h-16V80z M216,52.224V16h64v36.224     c0,16.56,6.168,31.944,16.744,43.776h-97.488C209.832,84.168,216,68.784,216,52.224z M136,80h16v16h-16V80z M360,352H168v16h192     v112H136V368h16v-16h-16v-96h224V352z M344,128v16h16v96H136v-96h192v-16H120v-16h256v16H344z M432,352h-56v-96h56     c26.472,0,48,21.528,48,48S458.472,352,432,352z" fill="#ffffff"/><path d="M32,304c0,17.648,14.352,32,32,32s32-14.352,32-32s-14.352-32-32-32S32,286.352,32,304z M80,304c0,8.824-7.176,16-16,16     s-16-7.176-16-16c0-8.824,7.176-16,16-16C72.824,288,80,295.176,80,304z" fill="#ffffff"/><path d="M432,272c-17.648,0-32,14.352-32,32s14.352,32,32,32s32-14.352,32-32S449.648,272,432,272z M432,320     c-8.824,0-16-7.176-16-16c0-8.824,7.176-16,16-16c8.824,0,16,7.176,16,16C448,312.824,440.824,320,432,320z" fill="#ffffff"/></g><g transform="matrix(0.10080645233392715 0 0 0.10080645233392715 62.5 237.5)" id="L1_78"><path d="M461.752,240.584c-13.496-95.688-87.648-172.096-182.2-189.016C277.312,31.616,260.536,16,240,16     c-20.528,0-37.296,15.608-39.552,35.544c-8.264,1.472-16.4,3.536-24.448,5.936V0H0v128h16v144c0,123.512,100.488,224,224,224     c107.144,0,196.904-75.624,218.832-176.288C479.544,318.232,496,301.088,496,280C496,259.912,481.064,243.4,461.752,240.584z      M240,32c10.84,0,19.92,7.272,22.888,17.16C255.36,48.392,247.728,48,240,48c-7.696,0-15.336,0.52-22.928,1.288     C220,39.336,229.112,32,240,32z M176,116.408c14.48-2.872,30.528-4.408,48-4.408c66.848,0,136,44.888,136,120     c0,33.064-13.44,63.04-35.144,84.76C331.944,303.384,336,288.168,336,272c0-52.936-43.064-96-96-96     c-33.368,0-62.792,17.136-80,43.048V128h16V116.408z M248,208v-15.592c16.064,1.6,30.736,7.984,42.592,17.688l-34.44,34.44     c-2.528-1.488-5.248-2.64-8.152-3.4V224h-16v17.136c-2.904,0.752-5.632,1.904-8.152,3.4l-34.44-34.44     c11.856-9.704,26.528-16.088,42.592-17.688V208H248z M212.536,255.848c-1.488,2.528-2.64,5.248-3.4,8.152h-48.728     c1.6-16.064,7.976-30.736,17.688-42.592L212.536,255.848z M209.136,280c0.752,2.904,1.904,5.632,3.4,8.152l-34.44,34.44     c-9.704-11.856-16.088-26.528-17.688-42.592H209.136z M223.848,299.464c2.528,1.488,5.248,2.64,8.152,3.4v48.728     c-16.064-1.6-30.736-7.984-42.592-17.688L223.848,299.464z M224,272c0-8.824,7.176-16,16-16c8.824,0,16,7.176,16,16     c0,8.824-7.176,16-16,16C231.176,288,224,280.824,224,272z M248,302.864c2.904-0.752,5.632-1.904,8.152-3.4l34.44,34.44     c-11.816,9.672-26.424,16.048-42.424,17.68c-0.056,0.008-0.112,0.008-0.168,0.008V302.864z M267.464,288.152     c1.488-2.528,2.64-5.248,3.4-8.152h48.728c-1.6,16.064-7.976,30.736-17.688,42.592L267.464,288.152z M270.864,264     c-0.752-2.904-1.904-5.632-3.4-8.152l34.44-34.44c9.704,11.856,16.088,26.528,17.688,42.592H270.864z M16,48h112V32H16V16h144v16     h-16v16h16v64H16V48z M240,480c-114.688,0-208-93.312-208-208V128h112v144c0,52.936,43.064,96,96,96     c3.312,0,6.576-0.168,9.8-0.496C320.216,362.448,376,303.68,376,232c0-85.128-77.288-136-152-136c-17.28,0-33.32,1.424-48,4.104     V74.2c20.624-6.664,42.096-10.2,64-10.2c114.688,0,208,93.312,208,208S354.688,480,240,480z M461.776,303.216     C463.208,293.008,464,282.6,464,272c0-4.944-0.216-9.832-0.536-14.696C473.032,260.464,480,269.384,480,280     C480,291.232,472.216,300.616,461.776,303.216z" fill="#ffffff"/><rect x="48px" y="144px" width="16px" height="16px" fill="#ffffff"/><rect x="96px" y="248px" width="16px" height="16px" fill="#ffffff"/><rect x="136px" y="392px" width="16px" height="16px" fill="#ffffff"/><rect x="280px" y="376px" width="16px" height="16px" fill="#ffffff"/><rect x="224px" y="440px" width="16px" height="16px" fill="#ffffff"/><rect x="392px" y="312px" width="16px" height="16px" fill="#ffffff"/></g></defs><g fi:class="KUsePattern" opacity="0.3"><pattern id="pattern_L1_69" width="350" height="350" patternUnits="userSpaceOnUse"><use xlink:href="#L1_69" x="-350" y="-350"/><use xlink:href="#L1_69" x="0" y="-350"/><use xlink:href="#L1_69" x="350" y="-350"/><use xlink:href="#L1_69" x="-350" y="0"/><use xlink:href="#L1_69" x="0" y="0"/><use xlink:href="#L1_69" x="350" y="0"/><use xlink:href="#L1_69" x="-350" y="350"/><use xlink:href="#L1_69" x="0" y="350"/><use xlink:href="#L1_69" x="350" y="350"/></pattern><rect x="0" y="0" width="100%" height="100%" fill="url(#pattern_L1_69)"/></g><g fi:class="KUsePattern" opacity="0.31"><pattern id="pattern_L1_70" width="350" height="350" patternUnits="userSpaceOnUse"><use xlink:href="#L1_70" x="-350" y="-350"/><use xlink:href="#L1_70" x="0" y="-350"/><use xlink:href="#L1_70" x="350" y="-350"/><use xlink:href="#L1_70" x="-350" y="0"/><use xlink:href="#L1_70" x="0" y="0"/><use xlink:href="#L1_70" x="350" y="0"/><use xlink:href="#L1_70" x="-350" y="350"/><use xlink:href="#L1_70" x="0" y="350"/><use xlink:href="#L1_70" x="350" y="350"/></pattern><rect x="0" y="0" width="100%" height="100%" fill="url(#pattern_L1_70)"/></g><g fi:class="KUsePattern" opacity="0.3"><pattern id="pattern_L1_71" width="350" height="350" patternUnits="userSpaceOnUse"><use xlink:href="#L1_71" x="-350" y="-350"/><use xlink:href="#L1_71" x="0" y="-350"/><use xlink:href="#L1_71" x="350" y="-350"/><use xlink:href="#L1_71" x="-350" y="0"/><use xlink:href="#L1_71" x="0" y="0"/><use xlink:href="#L1_71" x="350" y="0"/><use xlink:href="#L1_71" x="-350" y="350"/><use xlink:href="#L1_71" x="0" y="350"/><use xlink:href="#L1_71" x="350" y="350"/></pattern><rect x="0" y="0" width="100%" height="100%" fill="url(#pattern_L1_71)"/></g><g fi:class="KUsePattern" opacity="0.31"><pattern id="pattern_L1_72" width="350" height="350" patternUnits="userSpaceOnUse"><use xlink:href="#L1_72" x="-350" y="-350"/><use xlink:href="#L1_72" x="0" y="-350"/><use xlink:href="#L1_72" x="350" y="-350"/><use xlink:href="#L1_72" x="-350" y="0"/><use xlink:href="#L1_72" x="0" y="0"/><use xlink:href="#L1_72" x="350" y="0"/><use xlink:href="#L1_72" x="-350" y="350"/><use xlink:href="#L1_72" x="0" y="350"/><use xlink:href="#L1_72" x="350" y="350"/></pattern><rect x="0" y="0" width="100%" height="100%" fill="url(#pattern_L1_72)"/></g><g fi:class="KUsePattern" opacity="0.31"><pattern id="pattern_L1_73" width="350" height="350" patternUnits="userSpaceOnUse"><use xlink:href="#L1_73" x="-350" y="-350"/><use xlink:href="#L1_73" x="0" y="-350"/><use xlink:href="#L1_73" x="350" y="-350"/><use xlink:href="#L1_73" x="-350" y="0"/><use xlink:href="#L1_73" x="0" y="0"/><use xlink:href="#L1_73" x="350" y="0"/><use xlink:href="#L1_73" x="-350" y="350"/><use xlink:href="#L1_73" x="0" y="350"/><use xlink:href="#L1_73" x="350" y="350"/></pattern><rect x="0" y="0" width="100%" height="100%" fill="url(#pattern_L1_73)"/></g><g fi:class="KUsePattern" opacity="0.31"><pattern id="pattern_L1_74" width="350" height="350" patternUnits="userSpaceOnUse"><use xlink:href="#L1_74" x="-350" y="-350"/><use xlink:href="#L1_74" x="0" y="-350"/><use xlink:href="#L1_74" x="350" y="-350"/><use xlink:href="#L1_74" x="-350" y="0"/><use xlink:href="#L1_74" x="0" y="0"/><use xlink:href="#L1_74" x="350" y="0"/><use xlink:href="#L1_74" x="-350" y="350"/><use xlink:href="#L1_74" x="0" y="350"/><use xlink:href="#L1_74" x="350" y="350"/></pattern><rect x="0" y="0" width="100%" height="100%" fill="url(#pattern_L1_74)"/></g><g fi:class="KUsePattern" opacity="0.3"><pattern id="pattern_L1_75" width="350" height="350" patternUnits="userSpaceOnUse"><use xlink:href="#L1_75" x="-350" y="-350"/><use xlink:href="#L1_75" x="0" y="-350"/><use xlink:href="#L1_75" x="350" y="-350"/><use xlink:href="#L1_75" x="-350" y="0"/><use xlink:href="#L1_75" x="0" y="0"/><use xlink:href="#L1_75" x="350" y="0"/><use xlink:href="#L1_75" x="-350" y="350"/><use xlink:href="#L1_75" x="0" y="350"/><use xlink:href="#L1_75" x="350" y="350"/></pattern><rect x="0" y="0" width="100%" height="100%" fill="url(#pattern_L1_75)"/></g><g fi:class="KUsePattern" opacity="0.31"><pattern id="pattern_L1_76" width="350" height="350" patternUnits="userSpaceOnUse"><use xlink:href="#L1_76" x="-350" y="-350"/><use xlink:href="#L1_76" x="0" y="-350"/><use xlink:href="#L1_76" x="350" y="-350"/><use xlink:href="#L1_76" x="-350" y="0"/><use xlink:href="#L1_76" x="0" y="0"/><use xlink:href="#L1_76" x="350" y="0"/><use xlink:href="#L1_76" x="-350" y="350"/><use xlink:href="#L1_76" x="0" y="350"/><use xlink:href="#L1_76" x="350" y="350"/></pattern><rect x="0" y="0" width="100%" height="100%" fill="url(#pattern_L1_76)"/></g><g fi:class="KUsePattern" opacity="0.3"><pattern id="pattern_L1_77" width="350" height="350" patternUnits="userSpaceOnUse"><use xlink:href="#L1_77" x="-350" y="-350"/><use xlink:href="#L1_77" x="0" y="-350"/><use xlink:href="#L1_77" x="350" y="-350"/><use xlink:href="#L1_77" x="-350" y="0"/><use xlink:href="#L1_77" x="0" y="0"/><use xlink:href="#L1_77" x="350" y="0"/><use xlink:href="#L1_77" x="-350" y="350"/><use xlink:href="#L1_77" x="0" y="350"/><use xlink:href="#L1_77" x="350" y="350"/></pattern><rect x="0" y="0" width="100%" height="100%" fill="url(#pattern_L1_77)"/></g><g fi:class="KUsePattern" opacity="0.31"><pattern id="pattern_L1_78" width="350" height="350" patternUnits="userSpaceOnUse"><use xlink:href="#L1_78" x="-350" y="-350"/><use xlink:href="#L1_78" x="0" y="-350"/><use xlink:href="#L1_78" x="350" y="-350"/><use xlink:href="#L1_78" x="-350" y="0"/><use xlink:href="#L1_78" x="0" y="0"/><use xlink:href="#L1_78" x="350" y="0"/><use xlink:href="#L1_78" x="-350" y="350"/><use xlink:href="#L1_78" x="0" y="350"/><use xlink:href="#L1_78" x="350" y="350"/></pattern><rect x="0" y="0" width="100%" height="100%" fill="url(#pattern_L1_78)"/></g></svg>