<svg width="60" height="60" viewBox="0 0 60 60" fill="none" xmlns="http://www.w3.org/2000/svg">
<g filter="url(#filter0_d_7_477)">
<path d="M43.125 29.0625V28.125H51.7012C51.9797 28.8112 52.6509 29.2969 53.4375 29.2969C54.4725 29.2969 55.3125 28.4569 55.3125 27.4219C55.3125 26.3869 54.4725 25.5469 53.4375 25.5469C52.4822 25.5469 51.7022 26.2641 51.5859 27.1875H43.125V26.25H41.25V24.375H43.125V23.4375H45.6103L48.4228 21.5625H51.7012C51.9797 22.2487 52.6509 22.7344 53.4375 22.7344C54.4725 22.7344 55.3125 21.8944 55.3125 20.8594C55.3125 19.8244 54.4725 18.9844 53.4375 18.9844C52.4822 18.9844 51.7022 19.7016 51.5859 20.625H48.1387L45.3262 22.5H43.125V21.5625H41.25V18.75H38.4375V16.875H37.5V15.1566L40.3125 11.4066V8.83969C41.1197 8.63062 41.7188 7.90312 41.7188 7.03125C41.7188 5.99625 40.8787 5.15625 39.8438 5.15625C38.8088 5.15625 37.9688 5.99625 37.9688 7.03125C37.9688 7.90312 38.5678 8.63062 39.375 8.83969V11.0934L36.5625 14.8434V16.875H35.625V18.75H33.75V16.875H32.8125V13.2703L34.6875 10.5356V8.83969C35.4947 8.63062 36.0938 7.90312 36.0938 7.03125C36.0938 5.99625 35.2537 5.15625 34.2188 5.15625C33.1838 5.15625 32.3438 5.99625 32.3438 7.03125C32.3438 7.90312 32.9428 8.63062 33.75 8.83969V10.2459L31.875 12.9806V16.875H30.9375V18.75H29.0625V16.875H28.125V10.7147C28.9322 10.5056 29.5312 9.77812 29.5312 8.90625C29.5312 7.87125 28.6912 7.03125 27.6562 7.03125C26.6213 7.03125 25.7812 7.87125 25.7812 8.90625C25.7812 9.77812 26.3803 10.5056 27.1875 10.7147V16.875H26.25V18.75H24.375V16.875H23.4375V13.8684L21.5625 11.9934V8.83969C22.3697 8.63062 22.9688 7.90312 22.9688 7.03125C22.9688 5.99625 22.1287 5.15625 21.0938 5.15625C20.0588 5.15625 19.2188 5.99625 19.2188 7.03125C19.2188 7.90312 19.8178 8.63062 20.625 8.83969V12.3816L22.5 14.2566V16.875H21.5625V18.75H18.75V21.5625H16.875V22.5H15.3759L12.5634 20.625H9.11719C9.00094 19.7016 8.22094 18.9844 7.26562 18.9844C6.23063 18.9844 5.39062 19.8244 5.39062 20.8594C5.39062 21.8944 6.23063 22.7344 7.26562 22.7344C8.05125 22.7344 8.7225 22.2487 9.00188 21.5625H12.2803L15.0928 23.4375H16.875V24.375H18.75V26.25H16.875V27.1875H8.17969C8.06344 26.2641 7.28344 25.5469 6.32812 25.5469C5.29313 25.5469 4.45312 26.3869 4.45312 27.4219C4.45312 28.4569 5.29313 29.2969 6.32812 29.2969C7.11375 29.2969 7.785 28.8112 8.06438 28.125H16.875V29.0625H18.75V30.9375H16.875V31.875H11.9297C11.8134 30.9516 11.0334 30.2344 10.0781 30.2344C9.04313 30.2344 8.20312 31.0744 8.20312 32.1094C8.20312 33.1444 9.04313 33.9844 10.0781 33.9844C10.8637 33.9844 11.535 33.4987 11.8144 32.8125H16.875V33.75H18.75V35.625H16.875V36.5625H14.1553L11.3428 38.4375H8.17969C8.06344 37.5141 7.28344 36.7969 6.32812 36.7969C5.29313 36.7969 4.45312 37.6369 4.45312 38.6719C4.45312 39.7069 5.29313 40.5469 6.32812 40.5469C7.11375 40.5469 7.785 40.0612 8.06438 39.375H11.6269L14.4394 37.5H16.875V38.4375H18.75V41.25H21.5625V43.125H22.5V45.3122L19.6875 49.0622V51.6281C18.8803 51.8372 18.2812 52.5647 18.2812 53.4366C18.2812 54.4716 19.1213 55.3116 20.1562 55.3116C21.1912 55.3116 22.0312 54.4716 22.0312 53.4366C22.0312 52.5647 21.4322 51.8372 20.625 51.6281V49.3744L23.4375 45.6244V43.125H24.375V41.25H26.25V43.125H27.1875V47.1984L25.3125 49.9331V51.6291C24.5053 51.8381 23.9062 52.5656 23.9062 53.4375C23.9062 54.4725 24.7463 55.3125 25.7812 55.3125C26.8162 55.3125 27.6562 54.4725 27.6562 53.4375C27.6562 52.5656 27.0572 51.8381 26.25 51.6291V50.2228L28.125 47.4881V43.125H29.0625V41.25H30.9375V43.125H31.875V49.7541C31.0678 49.9631 30.4688 50.6906 30.4688 51.5625C30.4688 52.5975 31.3088 53.4375 32.3438 53.4375C33.3787 53.4375 34.2188 52.5975 34.2188 51.5625C34.2188 50.6906 33.6197 49.9631 32.8125 49.7541V43.125H33.75V41.25H35.625V43.125H36.5625V46.6003L38.4375 48.4753V51.6291C37.6303 51.8381 37.0312 52.5656 37.0312 53.4375C37.0312 54.4725 37.8713 55.3125 38.9062 55.3125C39.9412 55.3125 40.7812 54.4725 40.7812 53.4375C40.7812 52.5656 40.1822 51.8381 39.375 51.6291V48.0872L37.5 46.2122V43.125H38.4375V41.25H41.25V38.4375H43.125V37.5H46.2122L48.0872 39.375H51.7012C51.9797 40.0612 52.6509 40.5469 53.4375 40.5469C54.4725 40.5469 55.3125 39.7069 55.3125 38.6719C55.3125 37.6369 54.4725 36.7969 53.4375 36.7969C52.4822 36.7969 51.7022 37.5141 51.5859 38.4375H48.4753L46.6003 36.5625H43.125V35.625H41.25V33.75H43.125V32.8125H47.9512C48.2297 33.4987 48.9009 33.9844 49.6875 33.9844C50.7225 33.9844 51.5625 33.1444 51.5625 32.1094C51.5625 31.0744 50.7225 30.2344 49.6875 30.2344C48.7322 30.2344 47.9522 30.9516 47.8359 31.875H43.125V30.9375H41.25V29.0625H43.125ZM53.4375 26.4844C53.955 26.4844 54.375 26.9044 54.375 27.4219C54.375 27.9394 53.955 28.3594 53.4375 28.3594C52.92 28.3594 52.5 27.9394 52.5 27.4219C52.5 26.9044 52.92 26.4844 53.4375 26.4844ZM53.4375 19.9219C53.955 19.9219 54.375 20.3419 54.375 20.8594C54.375 21.3769 53.955 21.7969 53.4375 21.7969C52.92 21.7969 52.5 21.3769 52.5 20.8594C52.5 20.3419 52.92 19.9219 53.4375 19.9219ZM41.25 22.5H42.1875V23.4375H41.25V22.5ZM38.9062 7.03125C38.9062 6.51375 39.3263 6.09375 39.8438 6.09375C40.3612 6.09375 40.7812 6.51375 40.7812 7.03125C40.7812 7.54875 40.3612 7.96875 39.8438 7.96875C39.3263 7.96875 38.9062 7.54875 38.9062 7.03125ZM33.2812 7.03125C33.2812 6.51375 33.7013 6.09375 34.2188 6.09375C34.7362 6.09375 35.1562 6.51375 35.1562 7.03125C35.1562 7.54875 34.7362 7.96875 34.2188 7.96875C33.7013 7.96875 33.2812 7.54875 33.2812 7.03125ZM26.7188 8.90625C26.7188 8.38875 27.1388 7.96875 27.6562 7.96875C28.1737 7.96875 28.5938 8.38875 28.5938 8.90625C28.5938 9.42375 28.1737 9.84375 27.6562 9.84375C27.1388 9.84375 26.7188 9.42375 26.7188 8.90625ZM20.1562 7.03125C20.1562 6.51375 20.5763 6.09375 21.0938 6.09375C21.6112 6.09375 22.0312 6.51375 22.0312 7.03125C22.0312 7.54875 21.6112 7.96875 21.0938 7.96875C20.5763 7.96875 20.1562 7.54875 20.1562 7.03125ZM7.26562 21.7969C6.74813 21.7969 6.32812 21.3769 6.32812 20.8594C6.32812 20.3419 6.74813 19.9219 7.26562 19.9219C7.78312 19.9219 8.20312 20.3419 8.20312 20.8594C8.20312 21.3769 7.78312 21.7969 7.26562 21.7969ZM6.32812 28.3594C5.81063 28.3594 5.39062 27.9394 5.39062 27.4219C5.39062 26.9044 5.81063 26.4844 6.32812 26.4844C6.84562 26.4844 7.26562 26.9044 7.26562 27.4219C7.26562 27.9394 6.84562 28.3594 6.32812 28.3594ZM10.0781 33.0469C9.56063 33.0469 9.14062 32.6269 9.14062 32.1094C9.14062 31.5919 9.56063 31.1719 10.0781 31.1719C10.5956 31.1719 11.0156 31.5919 11.0156 32.1094C11.0156 32.6269 10.5956 33.0469 10.0781 33.0469ZM6.32812 39.6094C5.81063 39.6094 5.39062 39.1894 5.39062 38.6719C5.39062 38.1544 5.81063 37.7344 6.32812 37.7344C6.84562 37.7344 7.26562 38.1544 7.26562 38.6719C7.26562 39.1894 6.84562 39.6094 6.32812 39.6094ZM18.75 37.5H17.8125V36.5625H18.75V37.5ZM18.75 32.8125H17.8125V31.875H18.75V32.8125ZM18.75 28.125H17.8125V27.1875H18.75V28.125ZM18.75 23.4375H17.8125V22.5H18.75V23.4375ZM21.0938 53.4375C21.0938 53.955 20.6737 54.375 20.1562 54.375C19.6388 54.375 19.2188 53.955 19.2188 53.4375C19.2188 52.92 19.6388 52.5 20.1562 52.5C20.6737 52.5 21.0938 52.92 21.0938 53.4375ZM26.7188 53.4375C26.7188 53.955 26.2987 54.375 25.7812 54.375C25.2638 54.375 24.8438 53.955 24.8438 53.4375C24.8438 52.92 25.2638 52.5 25.7812 52.5C26.2987 52.5 26.7188 52.92 26.7188 53.4375ZM33.2812 51.5625C33.2812 52.08 32.8612 52.5 32.3438 52.5C31.8263 52.5 31.4062 52.08 31.4062 51.5625C31.4062 51.045 31.8263 50.625 32.3438 50.625C32.8612 50.625 33.2812 51.045 33.2812 51.5625ZM39.8438 53.4375C39.8438 53.955 39.4237 54.375 38.9062 54.375C38.3888 54.375 37.9688 53.955 37.9688 53.4375C37.9688 52.92 38.3888 52.5 38.9062 52.5C39.4237 52.5 39.8438 52.92 39.8438 53.4375ZM36.5625 17.8125H37.5V18.75H36.5625V17.8125ZM31.875 17.8125H32.8125V18.75H31.875V17.8125ZM27.1875 17.8125H28.125V18.75H27.1875V17.8125ZM22.5 17.8125H23.4375V18.75H22.5V17.8125ZM23.4375 42.1875H22.5V41.25H23.4375V42.1875ZM28.125 42.1875H27.1875V41.25H28.125V42.1875ZM32.8125 42.1875H31.875V41.25H32.8125V42.1875ZM37.5 42.1875H36.5625V41.25H37.5V42.1875ZM40.3125 40.3125H19.6875V19.6875H40.3125V40.3125ZM53.4375 37.7344C53.955 37.7344 54.375 38.1544 54.375 38.6719C54.375 39.1894 53.955 39.6094 53.4375 39.6094C52.92 39.6094 52.5 39.1894 52.5 38.6719C52.5 38.1544 52.92 37.7344 53.4375 37.7344ZM42.1875 36.5625V37.5H41.25V36.5625H42.1875ZM49.6875 31.1719C50.205 31.1719 50.625 31.5919 50.625 32.1094C50.625 32.6269 50.205 33.0469 49.6875 33.0469C49.17 33.0469 48.75 32.6269 48.75 32.1094C48.75 31.5919 49.17 31.1719 49.6875 31.1719ZM42.1875 31.875V32.8125H41.25V31.875H42.1875ZM41.25 27.1875H42.1875V28.125H41.25V27.1875Z" fill="#3F3A34"/>
<path d="M38.4375 21.5625H21.5625V38.4375H38.4375V21.5625ZM37.5 37.5H22.5V22.5H37.5V37.5Z" fill="#3F3A34"/>
<path d="M28.4574 32.2059L35.0195 25.6438L34.3566 24.9809L27.7945 31.543L28.4574 32.2059Z" fill="#3F3A34"/>
<path d="M24.7073 33.1435L30.332 27.5187L29.6691 26.8558L24.0444 32.4806L24.7073 33.1435Z" fill="#3F3A34"/>
</g>
<defs>
<filter id="filter0_d_7_477" x="4.45312" y="1.15625" width="54.8594" height="54.1562" filterUnits="userSpaceOnUse" color-interpolation-filters="sRGB">
<feFlood flood-opacity="0" result="BackgroundImageFix"/>
<feColorMatrix in="SourceAlpha" type="matrix" values="0 0 0 0 0 0 0 0 0 0 0 0 0 0 0 0 0 0 127 0" result="hardAlpha"/>
<feOffset dx="2" dy="-2"/>
<feGaussianBlur stdDeviation="1"/>
<feComposite in2="hardAlpha" operator="out"/>
<feColorMatrix type="matrix" values="0 0 0 0 0 0 0 0 0 0 0 0 0 0 0 0 0 0 0.25 0"/>
<feBlend mode="normal" in2="BackgroundImageFix" result="effect1_dropShadow_7_477"/>
<feBlend mode="normal" in="SourceGraphic" in2="effect1_dropShadow_7_477" result="shape"/>
</filter>
</defs>
</svg>
