<svg width="60" height="61" viewBox="0 0 60 61" fill="none" xmlns="http://www.w3.org/2000/svg">
<g clip-path="url(#clip0_7_540)" filter="url(#filter0_d_7_540)">
<path d="M46.875 14.125H13.125C10.0184 14.125 7.5 16.6434 7.5 19.75V46C7.5 49.1066 10.0184 51.625 13.125 51.625H46.875C49.9816 51.625 52.5 49.1066 52.5 46V19.75C52.5 16.6434 49.9816 14.125 46.875 14.125Z" stroke="#ffffff" stroke-width="0.94" stroke-linecap="round" stroke-linejoin="round"/>
<path d="M38.4375 34.75H21.5625C18.9737 34.75 16.875 36.8487 16.875 39.4375C16.875 42.0263 18.9737 44.125 21.5625 44.125H38.4375C41.0263 44.125 43.125 42.0263 43.125 39.4375C43.125 36.8487 41.0263 34.75 38.4375 34.75Z" stroke="#ffffff" stroke-width="0.94" stroke-linecap="round" stroke-linejoin="round"/>
<path d="M34.6875 34.75V44.125" stroke="#ffffff" stroke-width="0.94" stroke-linecap="round" stroke-linejoin="round"/>
<path d="M25.3125 34.75V44.125" stroke="#ffffff" stroke-width="0.94" stroke-linecap="round" stroke-linejoin="round"/>
<path d="M30 14.125V4.75" stroke="#ffffff" stroke-width="0.94" stroke-linecap="round" stroke-linejoin="round"/>
<path d="M19.25 27.5C19.9404 27.5 20.5 26.9404 20.5 26.25C20.5 25.5596 19.9404 25 19.25 25C18.5596 25 18 25.5596 18 26.25C18 26.9404 18.5596 27.5 19.25 27.5Z" fill="#ffffff"/>
<path d="M39.875 27.5C40.5654 27.5 41.125 26.9404 41.125 26.25C41.125 25.5596 40.5654 25 39.875 25C39.1846 25 38.625 25.5596 38.625 26.25C38.625 26.9404 39.1846 27.5 39.875 27.5Z" fill="#ffffff"/>
</g>
<defs>
<filter id="filter0_d_7_540" x="0" y="-3" width="64" height="64" filterUnits="userSpaceOnUse" color-interpolation-filters="sRGB">
<feFlood flood-opacity="0" result="BackgroundImageFix"/>
<feColorMatrix in="SourceAlpha" type="matrix" values="0 0 0 0 0 0 0 0 0 0 0 0 0 0 0 0 0 0 127 0" result="hardAlpha"/>
<feOffset dx="2" dy="-2"/>
<feGaussianBlur stdDeviation="1"/>
<feColorMatrix type="matrix" values="0 0 0 0 0 0 0 0 0 0 0 0 0 0 0 0 0 0 0.25 0"/>
<feBlend mode="normal" in2="BackgroundImageFix" result="effect1_dropShadow_7_540"/>
<feBlend mode="normal" in="SourceGraphic" in2="effect1_dropShadow_7_540" result="shape"/>
</filter>
<clipPath id="clip0_7_540">
<rect width="60" height="60" fill="white" transform="translate(0 1)"/>
</clipPath>
</defs>
</svg>
