<svg width="64" height="64" viewBox="0 0 64 64" fill="none" xmlns="http://www.w3.org/2000/svg">
<g clip-path="url(#clip0_10_562)" filter="url(#filter0_d_10_562)">
<path d="M53.2605 7.28245C51.9288 5.95067 50.15 5.16077 48.2691 5.06588C46.3881 4.97098 44.5389 5.57784 43.0799 6.76882C41.621 7.9598 40.6562 9.65006 40.3726 11.5119C40.0889 13.3738 40.5067 15.2747 41.5449 16.846L47.104 25.2598C47.1894 25.3892 47.3055 25.4954 47.4421 25.5689C47.5786 25.6424 47.7312 25.6809 47.8863 25.6809C48.0414 25.6809 48.194 25.6424 48.3306 25.5689C48.4671 25.4954 48.5832 25.3892 48.6686 25.2598L54.2277 16.847C55.1887 15.3839 55.6171 13.6347 55.441 11.8931C55.2648 10.1515 54.4949 8.52353 53.2605 7.28245V7.28245ZM52.6631 15.8133L47.8863 23.0423L43.1096 15.8124C42.5395 14.9494 42.2138 13.9482 42.1672 12.9149C42.1205 11.8817 42.3547 10.8552 42.8447 9.94434C43.3346 9.0335 44.0622 8.27241 44.9501 7.74192C45.8379 7.21144 46.8529 6.93137 47.8872 6.93146C48.9214 6.93156 49.9364 7.21183 50.8241 7.74249C51.7119 8.27315 52.4393 9.03437 52.9291 9.9453C53.419 10.8562 53.6529 11.8828 53.606 12.916C53.5592 13.9492 53.2333 14.9505 52.6631 15.8133L52.6631 15.8133Z" fill="#3F3A34"/>
<path d="M47.8863 8.90292C47.1446 8.90292 46.4196 9.12286 45.8029 9.53491C45.1862 9.94697 44.7056 10.5326 44.4218 11.2179C44.1379 11.9031 44.0637 12.6571 44.2084 13.3845C44.3531 14.1119 44.7102 14.7801 45.2347 15.3046C45.7591 15.829 46.4273 16.1862 47.1547 16.3309C47.8822 16.4756 48.6362 16.4013 49.3214 16.1175C50.0066 15.8336 50.5923 15.353 51.0043 14.7363C51.4164 14.1196 51.6363 13.3946 51.6363 12.6529C51.6353 11.6587 51.2398 10.7055 50.5368 10.0024C49.8338 9.29941 48.8806 8.90398 47.8863 8.90292V8.90292ZM47.8863 14.5279C47.5155 14.5279 47.153 14.418 46.8446 14.2119C46.5363 14.0059 46.296 13.7131 46.154 13.3705C46.0121 13.0278 45.975 12.6508 46.0474 12.2871C46.1197 11.9234 46.2983 11.5893 46.5605 11.3271C46.8227 11.0649 47.1568 10.8863 47.5205 10.814C47.8842 10.7416 48.2612 10.7787 48.6039 10.9206C48.9465 11.0626 49.2393 11.3029 49.4453 11.6112C49.6514 11.9196 49.7613 12.2821 49.7613 12.6529C49.7608 13.15 49.563 13.6266 49.2115 13.9781C48.86 14.3296 48.3834 14.5274 47.8863 14.5279V14.5279Z" fill="#3F3A34"/>
<path d="M12.75 44C12.0083 44 11.2833 44.2199 10.6666 44.632C10.0499 45.044 9.56928 45.6297 9.28545 46.3149C9.00162 47.0002 8.92736 47.7542 9.07206 48.4816C9.21675 49.209 9.57391 49.8772 10.0984 50.4017C10.6228 50.9261 11.291 51.2832 12.0184 51.4279C12.7458 51.5726 13.4998 51.4984 14.1851 51.2145C14.8703 50.9307 15.456 50.4501 15.868 49.8334C16.2801 49.2167 16.5 48.4917 16.5 47.75C16.4989 46.7558 16.1035 45.8026 15.4005 45.0995C14.6975 44.3965 13.7442 44.0011 12.75 44V44ZM12.75 49.625C12.3792 49.625 12.0166 49.515 11.7083 49.309C11.4 49.103 11.1596 48.8101 11.0177 48.4675C10.8758 48.1249 10.8387 47.7479 10.911 47.3842C10.9834 47.0205 11.162 46.6864 11.4242 46.4242C11.6864 46.162 12.0205 45.9834 12.3842 45.911C12.7479 45.8387 13.1249 45.8758 13.4675 46.0177C13.8101 46.1596 14.103 46.4 14.309 46.7083C14.515 47.0166 14.625 47.3792 14.625 47.75C14.6244 48.2471 14.4267 48.7237 14.0752 49.0752C13.7237 49.4267 13.2471 49.6244 12.75 49.625V49.625Z" fill="#3F3A34"/>
<path d="M44.9951 33.5123H16.3111C15.5573 33.5123 14.8107 33.3638 14.1142 33.0753C13.4177 32.7868 12.7849 32.3639 12.2518 31.8308C11.7187 31.2978 11.2958 30.6649 11.0073 29.9684C10.7188 29.2719 10.5703 28.5254 10.5703 27.7715C10.5703 27.0176 10.7188 26.2711 11.0073 25.5746C11.2958 24.8781 11.7187 24.2452 12.2518 23.7121C12.7849 23.179 13.4177 22.7562 14.1142 22.4677C14.8107 22.1791 15.5573 22.0307 16.3111 22.0307H35.7112L34.7416 23.0002C34.6546 23.0873 34.5855 23.1906 34.5384 23.3043C34.4913 23.4181 34.4671 23.5399 34.4671 23.6631C34.4671 23.7862 34.4913 23.908 34.5384 24.0218C34.5855 24.1355 34.6546 24.2388 34.7416 24.3259C34.8287 24.4129 34.932 24.482 35.0457 24.5291C35.1595 24.5762 35.2814 24.6005 35.4045 24.6005C35.5276 24.6005 35.6495 24.5762 35.7632 24.5291C35.8769 24.482 35.9803 24.4129 36.0673 24.3259L38.6364 21.7569C38.8119 21.5806 38.9104 21.3419 38.9104 21.0932C38.9104 20.8444 38.8119 20.6057 38.6364 20.4294L36.0673 17.8604C35.8915 17.6846 35.6531 17.5859 35.4045 17.5859C35.1558 17.5859 34.9174 17.6846 34.7416 17.8604C34.5658 18.0362 34.4671 18.2747 34.4671 18.5233C34.4671 18.7719 34.5658 19.0103 34.7416 19.1861L35.7112 20.1557H16.3111C15.311 20.1557 14.3207 20.3526 13.3967 20.7354C12.4727 21.1181 11.6331 21.6791 10.9259 22.3863C10.2188 23.0935 9.65778 23.933 9.27505 24.857C8.89232 25.781 8.69533 26.7714 8.69533 27.7715C8.69533 28.7716 8.89232 29.7619 9.27505 30.6859C9.65778 31.6099 10.2188 32.4495 10.9259 33.1567C11.6331 33.8639 12.4727 34.4248 13.3967 34.8076C14.3207 35.1903 15.311 35.3873 16.3111 35.3873H44.9951C45.7497 35.3862 46.497 35.5339 47.1944 35.8219C47.8918 36.1099 48.5256 36.5325 49.0595 37.0657C49.5934 37.5988 50.017 38.232 50.3059 38.929C50.5949 39.626 50.7437 40.3731 50.7437 41.1276C50.7437 41.8822 50.5949 42.6293 50.3059 43.3263C50.017 44.0233 49.5934 44.6564 49.0595 45.1896C48.5256 45.7227 47.8918 46.1454 47.1944 46.4334C46.497 46.7214 45.7497 46.8691 44.9951 46.868H19.5C19.2514 46.868 19.0129 46.9668 18.8371 47.1426C18.6613 47.3184 18.5625 47.5569 18.5625 47.8055C18.5625 48.0541 18.6613 48.2926 18.8371 48.4684C19.0129 48.6442 19.2514 48.743 19.5 48.743H44.9951C45.9959 48.7442 46.9872 48.5482 47.9122 48.166C48.8373 47.7839 49.6779 47.2231 50.386 46.5159C51.0942 45.8086 51.656 44.9686 52.0393 44.0441C52.4226 43.1195 52.6199 42.1285 52.6199 41.1276C52.6199 40.1268 52.4226 39.1357 52.0393 38.2112C51.656 37.2866 51.0942 36.4467 50.386 35.7394C49.6779 35.0322 48.8373 34.4714 47.9122 34.0893C46.9872 33.7071 45.9959 33.5111 44.9951 33.5123Z" fill="#3F3A34"/>
</g>
<defs>
<filter id="filter0_d_10_562" x="0" y="0" width="64" height="64" filterUnits="userSpaceOnUse" color-interpolation-filters="sRGB">
<feFlood flood-opacity="0" result="BackgroundImageFix"/>
<feColorMatrix in="SourceAlpha" type="matrix" values="0 0 0 0 0 0 0 0 0 0 0 0 0 0 0 0 0 0 127 0" result="hardAlpha"/>
<feOffset dx="2" dy="-2"/>
<feGaussianBlur stdDeviation="1"/>
<feColorMatrix type="matrix" values="0 0 0 0 0 0 0 0 0 0 0 0 0 0 0 0 0 0 0.25 0"/>
<feBlend mode="normal" in2="BackgroundImageFix" result="effect1_dropShadow_10_562"/>
<feBlend mode="normal" in="SourceGraphic" in2="effect1_dropShadow_10_562" result="shape"/>
</filter>
<clipPath id="clip0_10_562">
<rect width="60" height="60" fill="white" transform="translate(0 4)"/>
</clipPath>
</defs>
</svg>
